<svg class="w-3 md:w-4 mr-2 md:-mt-1" viewBox="0 0 15 15" fill="none" xmlns="http://www.w3.org/2000/svg"><path d="M4.007 14.76a.823.823 0 000-1.163l-.173-.173 1.948-.865.06.067.878.863a2.68 2.68 0 004.22-3.21l2.167-.958.49.484a.822.822 0 001.162-1.163L6.36.24a.824.824 0 00-1.163 1.166l.408.408-4.115 9.266-.083-.086A.823.823 0 00.24 12.157l2.604 2.603c.322.32.841.32 1.163 0zm5.396-2.375a1.121 1.121 0 01-1.583 0l-.503-.51 2.188-.965c.342.447.299 1.08-.102 1.476zM6.854 3.061l1.197 1.197L3.55 10.5l3.305-7.439z" fill="currentColor"></path></svg>