<svg xmlns="http://www.w3.org/2000/svg" fill="none" viewBox="0 0 147 30" height="30" width="147">
<path fill="#1658B3" d="M66 8L80.7 22.7L78.7 24.7L66 12V29H60V6L58 4L60 2H66V8ZM81 29H87V2H81V29ZM39 8H57V2H39V8ZM90 29H117V23H90V29ZM30 29H36V2H30V29ZM39 29H57V23H39V29ZM51 12.5H39V18.5H51V12.5ZM11.5 13.5L13.5 15.5L11.5 17.5L23 29H27V25L17.5 15.5L27 6L23 2L11.5 13.5ZM6 11.5V2H0V29H6V19.5L10 15.5L6 11.5ZM113 0L111 2H90V8H105L94 19L97.9 23L112.9 8H117V2H115L113 0ZM144 7.1L139.7 11.4C140.5 12.6164 140.918 14.0442 140.9 15.5C140.887 17.4851 140.093 19.3851 138.689 20.7888C137.285 22.1925 135.385 22.9869 133.4 23C131.951 22.9698 130.536 22.5557 129.3 21.8L125 26.1C127.385 28.0131 130.343 29.0696 133.4 29.1C135.175 29.1079 136.934 28.7642 138.576 28.0886C140.217 27.4129 141.708 26.4188 142.964 25.1637C144.219 23.9085 145.213 22.4171 145.889 20.7756C146.564 19.1341 146.908 17.3751 146.9 15.6C147.016 12.5058 145.983 9.47813 144 7.1V7.1ZM126 15.5C126.013 13.5149 126.807 11.6149 128.211 10.2112C129.615 8.80749 131.515 8.0131 133.5 8C134.949 8.03025 136.364 8.44433 137.6 9.2L141.9 4.9C139.917 3.29335 137.518 2.2845 134.982 1.99143C132.447 1.69837 129.881 2.1332 127.584 3.24509C125.287 4.35697 123.353 6.09993 122.01 8.27013C120.667 10.4403 119.97 12.948 120 15.5C119.984 18.5652 121.046 21.5384 123 23.9L127.3 19.6C126.47 18.3925 126.017 16.9653 126 15.5V15.5Z"></path>
</svg>
