<svg xmlns="http://www.w3.org/2000/svg" fill="none" viewBox="0 0 681 184" height="184" width="681">
<path fill="#1658B3" d="M237.88 69.1002C237.447 68.2269 237.23 66.1969 237.23 63.0102V32.7802C237.23 29.2802 236.493 26.6135 235.02 24.7802C233.56 22.9902 231.38 22.0902 228.51 22.0902C226.058 22.1866 223.662 22.8507 221.51 24.0302C217.934 25.9873 214.537 28.2561 211.36 30.8102V0.950195H209.06C209.06 0.950195 202.28 1.89018 196.27 2.50018H142.83L139.37 18.0602L141.37 18.7102C143.973 15.526 147.077 12.7869 150.56 10.6002C153.893 8.54022 156.753 7.51019 159.14 7.51019C160.76 7.51019 161.85 7.9702 162.42 8.8902C162.99 9.8102 163.26 12.1002 163.26 15.7602V63.5702C163.381 65.2707 163.035 66.9719 162.26 68.4902C161.422 69.6083 160.201 70.3774 158.83 70.6502V72.4702H183.83V70.6502C182.463 70.3752 181.246 69.6062 180.41 68.4902C179.635 66.9719 179.289 65.2707 179.41 63.5702V14.8702C179.41 11.6769 179.743 9.65357 180.41 8.80023C181.07 7.94023 182.3 7.51019 184.11 7.51019C187.309 7.58571 190.409 8.63197 193 10.5102C195.316 12.0876 197.345 14.0491 199 16.3102C199.139 17.6388 199.203 18.9743 199.19 20.3102V62.0802C199.19 65.7335 198.967 68.0202 198.52 68.9402C198.281 69.4032 197.93 69.7987 197.498 70.0905C197.067 70.3823 196.569 70.561 196.05 70.6102V72.4302H214.57V70.6102C214.044 70.5675 213.538 70.3918 213.099 70.0997C212.66 69.8076 212.303 69.4086 212.06 68.9402C211.613 68.0202 211.387 65.7335 211.38 62.0802V33.8602C213.008 33.1011 214.678 32.4334 216.38 31.8602C217.408 31.5272 218.48 31.3519 219.56 31.3402C220.403 31.2891 221.243 31.4864 221.975 31.9077C222.708 32.3289 223.3 32.9556 223.68 33.7102C224.52 35.2902 224.95 37.8602 224.95 41.4202V63.0302C224.95 66.2235 224.73 68.2535 224.29 69.1202C224.053 69.5725 223.705 69.9569 223.278 70.2368C222.851 70.5168 222.359 70.6832 221.85 70.7202V72.5402H240.32V70.7202C239.809 70.6812 239.316 70.5118 238.889 70.2282C238.462 69.9446 238.114 69.5563 237.88 69.1002V69.1002Z"></path>
<path fill="#1658B3" d="M281.76 58.79C280.08 60.7304 278.043 62.3295 275.76 63.5C273.603 64.5306 271.24 65.054 268.85 65.03C264.25 65.03 260.693 63.4267 258.18 60.22C255.666 57.0133 254.333 52.38 254.18 46.32H282.68C282.56 38.9867 280.663 33.12 276.99 28.72C275.247 26.586 273.036 24.8822 270.528 23.7411C268.021 22.5999 265.284 22.0521 262.53 22.14C259.561 22.1145 256.625 22.768 253.948 24.0505C251.27 25.3331 248.921 27.2107 247.08 29.54C242.866 34.48 240.76 40.6533 240.76 48.06C240.76 55.74 242.836 61.9667 246.99 66.74C248.995 69.0692 251.496 70.9195 254.31 72.1551C257.123 73.3907 260.178 73.9801 263.25 73.88C267.25 73.9042 271.162 72.7038 274.46 70.44C278.231 67.7573 281.362 64.2742 283.63 60.24L281.76 58.79ZM256.11 29.66C256.621 28.4455 257.484 27.4113 258.586 26.6898C259.689 25.9683 260.982 25.5923 262.3 25.61C263.488 25.5692 264.668 25.8216 265.735 26.3448C266.802 26.868 267.724 27.646 268.42 28.61C269.9 30.61 270.64 33.3533 270.64 36.84C270.64 38.96 270.23 40.35 269.4 40.99C268.57 41.63 266.33 41.99 262.68 41.99H254.05C254.05 36.4767 254.736 32.3667 256.11 29.66Z"></path>
<path fill="#1658B3" d="M0 162.11L10.32 134.54L15.02 136.3C17.6067 148.04 22.3733 157.337 29.32 164.19C36.2667 171.043 44.3467 174.47 53.56 174.47C60.14 174.47 65.4433 172.38 69.47 168.2C73.4967 164.02 75.4967 158.55 75.47 151.79C75.5993 147.096 73.9693 142.524 70.9 138.97C67.86 135.47 60.5633 130.86 49.01 125.14C47.47 124.34 45.2267 123.203 42.28 121.73C27.28 114.29 17.75 108.387 13.69 104.02C10.8925 101.047 8.72869 97.5354 7.33 93.7C5.88306 89.6136 5.16547 85.3047 5.20999 80.97C5.20999 68.6166 9.42 58.6166 17.84 50.97C26.26 43.3233 37.4167 39.4799 51.31 39.4399C58.6344 39.4611 65.8969 40.7816 72.76 43.34C80.4668 46.2394 87.7409 50.1793 94.38 55.05L84.51 80.22L80.51 78.83C78.85 69.37 75.3933 61.8733 70.14 56.34C67.763 53.7002 64.8526 51.5953 61.6014 50.1645C58.3501 48.7337 54.8321 48.0095 51.28 48.04C45.28 48.04 40.3633 49.73 36.53 53.11C34.6802 54.7041 33.2074 56.6891 32.2182 58.9218C31.229 61.1544 30.748 63.5788 30.81 66.02C30.771 68.4453 31.2111 70.8545 32.1052 73.1093C32.9992 75.3642 34.3296 77.4204 36.02 79.16C39.5 82.8133 46.2767 86.9166 56.35 91.47C57.21 91.9 58.44 92.47 60.04 93.22C76.64 100.84 87.49 107.323 92.59 112.67C96.1658 116.222 99.0424 120.415 101.07 125.03C102.973 129.423 103.947 134.162 103.93 138.95C103.93 151.983 99.12 162.6 89.5 170.8C79.88 179 67.4467 183.103 52.2 183.11C42.7869 183.134 33.4583 181.335 24.73 177.81C15.6296 174.068 7.25865 168.753 0 162.11V162.11Z"></path>
<path fill="#1658B3" d="M106.16 183.13V179.54C107.18 179.452 108.16 179.104 109.007 178.53C109.854 177.955 110.54 177.174 111 176.26C111.887 174.453 112.33 169.953 112.33 162.76V80.6101C112.33 73.9435 111.764 69.5002 110.63 67.2802C109.983 66.106 109.092 65.0837 108.018 64.2817C106.944 63.4797 105.71 62.9167 104.4 62.6302V58.6301C109.891 57.499 115.158 55.4719 119.99 52.6301C124.508 49.9831 128.498 46.5252 131.76 42.4302H136.28V101.17C144.514 94.8435 151.18 90.4001 156.28 87.8401C161.38 85.2801 165.944 84.0068 169.97 84.0201C175.617 84.0201 179.89 85.7868 182.79 89.3202C185.69 92.8535 187.134 98.0635 187.12 104.95V164.42C187.12 170.693 187.55 174.693 188.41 176.42C188.884 177.301 189.57 178.05 190.407 178.599C191.243 179.147 192.204 179.478 193.2 179.56V183.15H156.87V179.56C157.867 179.478 158.828 179.147 159.664 178.599C160.501 178.05 161.187 177.301 161.66 176.42C162.52 174.7 162.95 170.7 162.95 164.42V121.91C162.95 114.903 162.12 109.847 160.46 106.74C159.71 105.258 158.542 104.028 157.101 103.202C155.66 102.376 154.009 101.989 152.35 102.09C150.261 102.166 148.195 102.554 146.22 103.24C142.845 104.387 139.536 105.723 136.31 107.24V162.75C136.31 169.943 136.754 174.443 137.64 176.25C138.117 177.172 138.821 177.957 139.685 178.531C140.549 179.105 141.546 179.449 142.58 179.53V183.12L106.16 183.13Z"></path>
<path fill="#1658B3" d="M280.83 153.44L284.43 156.3C279.137 165.153 273.137 171.84 266.43 176.36C259.952 180.792 252.28 183.153 244.43 183.13C231.27 183.13 220.603 178.443 212.43 169.07C204.257 159.697 200.167 147.453 200.16 132.34C200.16 117.767 204.263 105.626 212.47 95.9198C220.677 86.2132 230.803 81.3532 242.85 81.3398C254.59 81.3398 264.07 85.6732 271.29 94.3398C278.51 103.007 282.243 114.547 282.49 128.96H226.49C226.79 140.88 229.417 149.993 234.37 156.3C239.323 162.607 246.323 165.757 255.37 165.75C260.069 165.798 264.718 164.772 268.96 162.75C273.475 160.433 277.505 157.273 280.83 153.44V153.44ZM226.25 120.25H243.25C250.437 120.25 254.847 119.62 256.48 118.36C258.113 117.1 258.927 114.38 258.92 110.2C258.92 103.32 257.46 97.9265 254.54 94.0198C253.172 92.1364 251.362 90.618 249.27 89.5979C247.177 88.5778 244.867 88.0874 242.54 88.1698C237.133 88.1698 233.077 90.8365 230.37 96.1698C227.663 101.503 226.29 109.53 226.25 120.25Z"></path>
<path fill="#1658B3" d="M292.63 183.13V179.54C295.89 178.68 298.18 177.25 299.5 175.25C300.82 173.25 301.487 170.04 301.5 165.62V62.81C301.5 58.3766 300.833 55.1667 299.5 53.18C298.167 51.1933 295.877 49.7633 292.63 48.89V45.48L334.63 44.1899H340.35C361.683 44.1899 377.957 47.1233 389.17 52.99C400.383 58.8567 405.993 67.3533 406 78.48C406.055 82.1204 405.312 85.7287 403.823 89.051C402.333 92.3733 400.134 95.3289 397.38 97.71C391.633 102.897 383.133 106.813 371.88 109.46C385.593 113.28 395.783 118.28 402.45 124.46C405.647 127.29 408.196 130.777 409.922 134.682C411.648 138.588 412.51 142.82 412.45 147.09C412.45 158.343 407.81 167.163 398.53 173.55C389.25 179.937 376.34 183.133 359.8 183.14L292.63 183.13ZM332.09 104.39H335.09C348.61 104.39 358.353 102.39 364.32 98.39C370.287 94.39 373.267 87.9666 373.26 79.12C373.26 71.5 370.803 65.43 365.89 60.91C360.977 56.39 354.367 54.1299 346.06 54.1299C340.407 54.1299 336.673 54.96 334.86 56.62C333.047 58.28 332.14 62.5533 332.14 69.44V104.38L332.09 104.39ZM332.09 114.44V161.84C332.09 166.007 333.137 168.923 335.23 170.59C337.323 172.257 341.04 173.087 346.38 173.08C356.713 173.08 364.52 170.607 369.8 165.66C375.08 160.713 377.723 153.38 377.73 143.66C377.73 134.073 374.75 126.807 368.79 121.86C362.83 116.913 354.1 114.437 342.6 114.43L332.09 114.44Z"></path>
<path fill="#1658B3" d="M503.38 97.27V164.42C503.38 170.693 503.81 174.693 504.67 176.42C505.129 177.294 505.799 178.04 506.62 178.588C507.441 179.137 508.386 179.471 509.37 179.56V183.15H471.84V179.56C472.868 179.48 473.858 179.136 474.715 178.561C475.571 177.987 476.265 177.201 476.73 176.28C477.59 174.473 478.02 169.973 478.02 162.78V135.65C478.02 128.95 477.45 124.46 476.31 122.18C475.672 120.996 474.786 119.963 473.712 119.152C472.639 118.341 471.403 117.77 470.09 117.48V113.7C475.567 112.578 480.819 110.55 485.63 107.7C490.175 104.993 494.187 101.479 497.47 97.33L503.38 97.27Z"></path>
<path fill="#1658B3" d="M595.76 153.44L599.36 156.3C594.066 165.153 588.066 171.84 581.36 176.36C574.882 180.795 567.21 183.156 559.36 183.13C546.206 183.13 535.54 178.443 527.36 169.07C519.18 159.697 515.08 147.453 515.06 132.34C515.06 117.767 519.16 105.626 527.36 95.9198C535.56 86.2132 545.693 81.3532 557.76 81.3398C569.513 81.3398 578.996 85.6732 586.21 94.3398C593.423 103.007 597.156 114.547 597.41 128.96H541.33C541.636 140.88 544.266 149.993 549.22 156.3C554.173 162.607 561.173 165.757 570.22 165.75C574.922 165.798 579.574 164.772 583.82 162.75C588.36 160.441 592.414 157.28 595.76 153.44ZM541.18 120.25H558.18C565.38 120.25 569.79 119.62 571.41 118.36C573.03 117.1 573.846 114.38 573.86 110.2C573.86 103.32 572.4 97.9265 569.48 94.0198C568.112 92.1364 566.302 90.618 564.209 89.5979C562.117 88.5778 559.806 88.0874 557.48 88.1698C552.066 88.1698 548.01 90.8365 545.31 96.1698C542.61 101.503 541.223 109.53 541.15 120.25H541.18Z"></path>
<path fill="#1658B3" d="M479.76 66.1999C472.32 69.6799 466.35 76.2699 458.45 89.7699C455.16 95.3999 451.92 100.01 451.25 100.01L451.19 105.17V84.0199H445.29C442 88.1075 438.003 91.5722 433.49 94.2499C428.667 97.1035 423.401 99.1314 417.91 100.25V104.25C420.91 105.11 423 106.66 424.13 108.91C425.26 111.16 425.84 115.56 425.84 122.14V162.8C425.84 169.993 425.41 174.493 424.55 176.3C424.086 177.221 423.392 178.006 422.535 178.581C421.679 179.156 420.688 179.5 419.66 179.58V183.17H457.16V179.58C456.177 179.491 455.231 179.157 454.41 178.608C453.589 178.06 452.919 177.314 452.46 176.44C451.593 174.72 451.16 170.72 451.16 164.44V120.15C451.58 113.43 452.48 110.83 454.41 106.52C458.82 96.6999 468.18 87.8199 474.03 87.8899C476.826 88.057 479.554 88.8208 482.03 90.1299C492.54 96.1299 503.38 89.6499 503.38 77.3599C503.38 66.5499 491.25 60.8399 479.76 66.1999Z" clip-rule="evenodd" fill-rule="evenodd"></path>
<path fill="#1658B3" d="M652.44 41.0599C634.24 32.7899 609.49 43.0599 609.49 64.9299C609.524 68.0855 609.818 71.2329 610.37 74.3399C610.95 77.8399 611.857 81.8633 613.09 86.4099H598.34V96.0999H601.68C604.754 96.0999 607.702 97.321 609.875 99.4946C612.049 101.668 613.27 104.616 613.27 107.69V162.76C613.27 169.953 612.827 174.453 611.94 176.26C611.462 177.18 610.758 177.964 609.894 178.538C609.03 179.112 608.034 179.457 607 179.54V183.13H644.62V179.54C643.623 179.457 642.663 179.127 641.826 178.578C640.989 178.03 640.303 177.281 639.83 176.4C638.97 174.68 638.54 170.68 638.54 164.4V96.0799H656.54V86.3899H638.17L636.05 82.0599C631.383 72.3799 628.123 65.2433 626.27 60.6499C624.75 41.8999 648.64 39.4399 648.64 58.1499C648.64 61.4399 649.37 65.4799 650.25 67.1499C653.83 73.8299 664.71 73.7199 668.33 66.9599C672.24 59.6599 664.07 46.3399 652.44 41.0599Z" clip-rule="evenodd" fill-rule="evenodd"></path>
<path fill="#1658B3" d="M666.28 183.14C674.117 183.14 680.47 176.787 680.47 168.95C680.47 161.113 674.117 154.76 666.28 154.76C658.443 154.76 652.09 161.113 652.09 168.95C652.09 176.787 658.443 183.14 666.28 183.14Z"></path>
</svg>
