<svg xmlns="http://www.w3.org/2000/svg" fill="none" viewBox="0 0 144 15" height="15" width="144">
<path fill="#1658B3" d="M140.605 0.280465L136.256 6.10326H136.122L131.773 0.280465H128.378L134.845 8.51023V14.5549H137.528V8.51023L144 0.280465H140.605ZM121.337 6.10326H113.601V0.267907H110.926V14.5507H113.601V8.58977H121.337V14.5507H124.007V0.267907H121.337V6.10326ZM83.7754 0.280465H81.2888V10.034H81.2219L72.5651 0.280465H70.2251V14.5549H72.7074V4.75953H72.7619L81.5107 14.5549H83.7754V0.280465ZM63.0963 12.0767H54.2344V8.58558H60.5972V6.10744H54.2344V2.72093H63.0963V0.280465H51.5595V14.5549H63.0963V12.0767ZM38.1516 10.9967H38.0805L33.7981 0.280465H30.7046L36.9879 14.5549H39.2149L45.5023 0.280465H42.4088L38.1516 10.9967ZM21.9851 14.5549H24.66V0.280465H21.9851V14.5549ZM7.10372 9.26372H11.6833V11.7502C11.0428 11.9721 9.90419 12.2693 8.06233 12.2693C4.79302 12.2693 2.98046 10.6284 2.98046 7.41767C2.98046 4.21116 4.8014 2.56186 8.06233 2.56186C11.3819 2.56186 13.0856 3.59163 14.0316 4.37442V1.50698C12.9809 0.644651 10.6158 0 8.06651 0C4.2614 0 0 1.55721 0 7.4093C0 13.2614 4.2614 14.8228 8.06651 14.8228C10.3814 14.8228 12.8009 14.2912 14.3121 13.3326V6.78558H7.10372V9.26372ZM90.1423 7.4093C90.1423 13.2614 94.4037 14.8186 98.2088 14.8186C100.758 14.8186 103.123 14.1781 104.178 13.3116V10.4442C103.236 11.227 101.528 12.2567 98.2088 12.2567C94.9479 12.2567 93.1312 10.6158 93.1312 7.4093C93.1312 4.19861 94.9479 2.55767 98.2088 2.55767C101.528 2.55767 103.232 3.58744 104.178 4.37023V1.50698C103.119 0.644651 100.754 0 98.2047 0C94.3995 0 90.1423 1.55721 90.1423 7.4093Z"></path>
</svg>
