<svg xmlns="http://www.w3.org/2000/svg" fill="none" viewBox="0 0 192 16" height="16" width="192">
<path fill="#1658B3" d="M2.03218 12.6661C2.03218 14.9646 1.80638 15.0677 0 15.2935V15.663H6.50763V15.273C4.33121 15.1088 4.29016 14.7393 4.29016 12.6866V9.4217H6.2197C9.73038 9.4217 12.5836 8.43695 12.5836 5.09049C12.5836 1.74458 9.73038 0.759277 6.2197 0.759277C5.78371 0.759277 5.24692 0.763301 4.64865 0.767786C3.89563 0.77343 3.04523 0.779804 2.17587 0.779804H0V1.14929C0.00984251 1.15075 0.0196382 1.15219 0.0293871 1.15363C1.80884 1.41644 2.03218 1.44942 2.03218 3.77676V12.6661ZM4.29016 1.51878H6.05604C8.60139 1.51878 10.0793 2.17564 10.0793 5.09049C10.0793 8.00589 8.60139 8.66275 6.05604 8.66275H4.29016V1.51878Z" clip-rule="evenodd" fill-rule="evenodd"></path>
<path fill="#1658B3" d="M11.5273 15.2938V15.6633H16.1054V15.2938C14.3401 15.1296 14.0733 14.8832 15.5512 11.1057L15.6538 10.8189H21.7298L22.8799 13.6921C23.2905 14.7395 22.8389 15.1296 21.4219 15.2938V15.6633H27.3753V15.2938C26.0206 15.2322 25.7948 14.78 25.1995 13.2411L19.9029 0H19.8208C19.554 0.390014 19.205 0.595285 18.774 0.636339L14.3196 11.8036C13.129 14.8006 12.9232 15.1906 11.5273 15.2938ZM21.3604 9.81249H16.0849L18.7124 3.14064L21.3604 9.81249Z" clip-rule="evenodd" fill-rule="evenodd"></path>
<path fill="#1658B3" d="M41.4897 12.0908V3.79726C41.4897 1.45718 41.2639 1.43665 39.4575 1.16924V0.799757H44.4661V1.16924C42.6598 1.43665 42.434 1.45718 42.434 3.79726V15.8888H41.5924L32.0672 3.94095V12.6866C32.0672 14.9851 32.293 15.0883 34.0994 15.3141V15.6835H29.0908V15.3141C30.8972 15.0883 31.123 14.9851 31.123 12.6866V2.75038C30.4451 1.86772 30.0351 1.41612 29.3987 1.10822V0.779785H32.4983L41.4897 12.0702V12.0908Z"></path>
<rect fill="#1658B3" height="1.80638" width="5.76866" y="9.07373" x="45.5957"></rect>
<path fill="#1658B3" d="M54.847 15.6631V15.2731C56.8587 15.1088 57.105 14.7599 57.105 12.6661V1.41618H56.4276C53.328 1.41618 52.4243 1.8062 51.2748 5.21369H50.8848L51.4801 0.718262C53.0407 0.779843 54.7644 0.779843 56.0171 0.779843H60.4515C61.7036 0.779843 63.4279 0.779843 64.988 0.718262L65.5833 5.21369H65.2138C64.0642 1.8062 63.1405 1.41618 60.0615 1.41618H59.3841V12.6661C59.3841 14.7599 59.6304 15.1088 61.6421 15.2731V15.6631H54.847Z"></path>
<path fill="#1658B3" d="M79.3484 15.6836C77.7878 15.6631 76.0635 15.6631 74.8113 15.6631H67.2568V15.2936C69.0632 15.0678 69.2896 14.9646 69.2896 12.6661V3.77679C69.2896 1.43671 69.0632 1.41618 67.2568 1.14933V0.779843H74.5034C75.7556 0.779843 77.5004 0.779843 79.0405 0.718262L79.6358 5.21369H79.2663C78.1168 1.53879 76.474 1.51882 72.7381 1.51882H71.5475V7.5338H74.4419C75.6119 7.5338 76.3304 6.95849 76.5561 5.23422H76.9256V10.736H76.5561C76.3304 9.01175 75.6119 8.43699 74.4419 8.43699H71.5475V14.0209C71.5475 14.7799 71.6496 14.9646 72.4713 14.9646H72.7997C76.7614 14.9646 78.5068 14.6156 79.7589 11.1671H80.1489L79.3484 15.6836Z"></path>
<path fill="#1658B3" d="M84.6684 8.14939C84.6684 12.4196 86.7211 14.945 89.9033 14.945C92.8592 14.945 94.4603 13.0565 95.0761 11.4548L95.6309 11.6601C95.0967 13.7749 92.9619 15.9297 89.5544 15.9297C84.8736 15.9297 82.1641 12.3785 82.1641 8.12886C82.1641 3.305 85.8384 0.369629 90.1291 0.369629C91.6276 0.369629 93.044 0.615399 94.5014 1.19071L94.9325 5.68614H94.563C93.8035 2.25812 92.2229 1.1086 89.7391 1.1086C87.2548 1.1086 84.6889 3.12025 84.6889 8.14939H84.6684Z"></path>
<path fill="#1658B3" d="M110.623 12.6661C110.623 14.9645 110.849 15.0677 112.655 15.2935V15.663H106.333V15.2935C108.139 15.0677 108.365 14.9645 108.365 12.6661V8.43693H101.344V12.6661C101.344 14.9645 101.57 15.0677 103.377 15.2935V15.663H97.0537V15.2935C98.8601 15.0677 99.0864 14.9645 99.0864 12.6661V3.77674C99.0864 1.43665 98.8601 1.41612 97.0537 1.14927V0.779785H103.377V1.14927C101.57 1.41612 101.344 1.43665 101.344 3.77674V7.53374H108.365V3.77674C108.365 1.43665 108.139 1.41612 106.333 1.14927V0.779785H112.655V1.14927C110.849 1.41612 110.623 1.43665 110.623 3.77674V12.6661Z"></path>
<path fill="#1658B3" d="M127.104 12.0908V3.79726C127.104 1.45718 126.879 1.43665 125.072 1.16924V0.799757H130.082V1.16924C128.275 1.43665 128.049 1.45718 128.049 3.79726V15.8888H127.207L117.682 3.94095V12.6866C117.682 14.9851 117.908 15.0883 119.714 15.3141V15.6835H114.705V15.3141C116.512 15.0883 116.737 14.9851 116.737 12.6866V2.75038C116.06 1.86772 115.649 1.41612 115.014 1.10822V0.779785H118.113L127.104 12.0702V12.0908Z"></path>
<path fill="#1658B3" d="M136.235 12.6661C136.235 14.9645 136.461 15.0677 138.267 15.2935V15.663H131.944V15.2935C133.751 15.0677 133.977 14.9645 133.977 12.6661V3.77674C133.977 1.43665 133.751 1.41612 131.944 1.14927V0.779785H138.267V1.14927C136.461 1.41612 136.235 1.43665 136.235 3.77674V12.6661Z"></path>
<path fill="#1658B3" d="M142.281 8.14939C142.281 12.4196 144.333 14.945 147.515 14.945C150.472 14.945 152.073 13.0565 152.689 11.4548L153.243 11.6601C152.71 13.7749 150.574 15.9297 147.167 15.9297C142.486 15.9297 139.776 12.3785 139.776 8.12886C139.776 3.305 143.451 0.369629 147.741 0.369629C149.24 0.369629 150.657 0.615399 152.114 1.19071L152.545 5.68614H152.176C151.416 2.25812 149.835 1.1086 147.351 1.1086C144.868 1.1086 142.301 3.12025 142.301 8.14939H142.281Z"></path>
<path fill="#1658B3" d="M156.575 6.52958H156.337C155.764 3.78617 155.43 2.45024 155.43 1.663C155.43 0.971186 155.764 0.470215 156.456 0.470215C157.148 0.470215 157.481 0.971186 157.481 1.663C157.481 2.45024 157.148 3.78617 156.575 6.52958Z"></path>
<path fill="#1658B3" d="M174.787 8.14939C174.787 3.16131 171.009 0.369629 167.15 0.369629C163.291 0.369629 159.514 3.16131 159.514 8.14939C159.514 13.138 163.291 15.9297 167.15 15.9297C171.009 15.9297 174.787 13.138 174.787 8.14939ZM162.039 8.14939C162.039 3.96186 164.174 1.1086 167.15 1.1086C170.127 1.1086 172.262 3.96186 172.262 8.14939C172.262 12.3375 170.127 15.1907 167.15 15.1907C164.174 15.1907 162.039 12.3375 162.039 8.14939Z" clip-rule="evenodd" fill-rule="evenodd"></path>
<path fill="#1658B3" d="M188.719 12.0908V3.79726C188.719 1.45718 188.493 1.43665 186.687 1.16924V0.799757H191.695V1.16924C189.889 1.43665 189.663 1.45718 189.663 3.79726V15.8888H188.821L179.296 3.94095V12.6866C179.296 14.9851 179.522 15.0883 181.328 15.3141V15.6835H176.319V15.3141C178.126 15.0883 178.352 14.9851 178.352 12.6866V2.75038C177.675 1.86772 177.264 1.41612 176.627 1.10822V0.779785H179.727L188.719 12.0702V12.0908Z"></path>
</svg>
