<svg xmlns="http://www.w3.org/2000/svg" fill="none" viewBox="0 0 150 68" height="68" width="150">
<g clip-path="url(#clip0)">
<path fill="#1658B3" d="M6.35877 67.933L2.07497 61.2874V67.933H0V57.1255H1.87416L6.15796 63.7711V57.1255H8.23293V67.933H6.35877Z"></path>
<path fill="#1658B3" d="M11.8477 67.933V57.1255H13.9226V67.933H11.8477Z"></path>
<path fill="#1658B3" d="M24.0969 66.7916C23.2937 67.5971 22.2897 68.067 21.0849 68.067C19.8801 68.067 18.943 67.6642 18.2067 66.8587C17.1357 65.7847 17.1357 64.4421 17.1357 62.5625C17.1357 60.683 17.1357 59.3404 18.2067 58.2664C18.943 57.528 19.8801 57.0581 21.0849 57.0581C22.5574 57.0581 23.4276 57.4609 24.3647 58.4678L22.959 59.8775C22.3566 59.2733 21.8881 58.9377 21.0849 58.9377C20.4825 58.9377 20.0139 59.1391 19.7462 59.5418C19.3446 60.0117 19.2107 60.4816 19.2107 62.5625C19.2107 64.6435 19.3446 65.1805 19.7462 65.5833C20.0809 65.9189 20.5494 66.1203 21.0849 66.1203C21.6873 66.1203 22.1558 65.9189 22.4905 65.5162C22.8252 65.1134 22.959 64.5764 22.959 64.0394V63.6366H21.0849V61.8913H25.1009V63.4352C25.1009 65.0463 24.8332 65.986 24.0969 66.7916Z"></path>
<path fill="#1658B3" d="M33.9355 67.933V63.4355H30.3211V67.933H28.2461V57.1255H30.3211V61.5559H33.9355V57.1255H36.0105V67.933H33.9355Z"></path>
<path fill="#1658B3" d="M43.7085 59.0051V67.933H41.6335V59.0051H38.8223V57.1255H46.5867V59.0051H43.7085Z"></path>
<path fill="#1658B3" d="M49.3311 67.933V57.1255H51.406V67.933H49.3311Z"></path>
<path fill="#1658B3" d="M61.3783 67.933L57.0945 61.2874V67.933H55.0195V57.1255H56.8937L61.1775 63.7711V57.1255H63.2525V67.933H61.3783Z"></path>
<path fill="#1658B3" d="M73.427 66.7916C72.6238 67.5971 71.6198 68.067 70.4149 68.067C69.2101 68.067 68.273 67.6642 67.5368 66.8587C66.4658 65.7847 66.4658 64.4421 66.4658 62.5625C66.4658 60.683 66.4658 59.3404 67.5368 58.2664C68.273 57.528 69.2101 57.0581 70.4149 57.0581C71.8875 57.0581 72.7577 57.4609 73.6947 58.4678L72.2891 59.8775C71.6867 59.2733 71.2182 58.9377 70.4149 58.9377C69.8125 58.9377 69.344 59.1391 69.0763 59.5418C68.6747 60.0117 68.5408 60.4816 68.5408 62.5625C68.5408 64.6435 68.6747 65.1805 69.0763 65.5833C69.4109 65.9189 69.8795 66.1203 70.4149 66.1203C71.0174 66.1203 71.4859 65.9189 71.8206 65.5162C72.1552 65.1134 72.2891 64.5764 72.2891 64.0394V63.6366H70.4149V61.8913H74.431V63.4352C74.431 65.0463 74.1633 65.986 73.427 66.7916Z"></path>
<path fill="#1658B3" d="M83.4673 67.933L82.8649 66.0534H78.9827L78.3133 67.933H76.1045L80.0536 57.1255H81.727L85.6761 67.933H83.4673ZM80.9907 60.2805L79.652 64.241H82.3294L80.9907 60.2805Z"></path>
<path fill="#1658B3" d="M88.0859 67.933V57.1255H90.1609V66.0534H95.0471V67.933H88.0859Z"></path>
<path fill="#1658B3" d="M97.791 67.933V57.1255H104.886V59.0051H99.866V61.5559H104.15V63.4355H99.866V66.0534H104.886V67.933H97.791Z"></path>
<path fill="#1658B3" d="M116.8 63.8382H114.725V67.933H112.65V57.1255H116.8C119.009 57.1255 120.348 58.6694 120.348 60.4819C120.348 62.2943 119.009 63.8382 116.8 63.8382ZM116.666 59.0051H114.725V61.9587H116.666C117.604 61.9587 118.206 61.3545 118.206 60.4819C118.206 59.6092 117.604 59.0051 116.666 59.0051Z"></path>
<path fill="#1658B3" d="M128.515 67.933L127.912 66.0534H124.097L123.428 67.933H121.219L125.168 57.1255H126.841L130.79 67.933H128.515ZM126.038 60.2805L124.699 64.241H127.377L126.038 60.2805Z"></path>
<path fill="#1658B3" d="M136.077 68.0001C134.471 68.0001 133.199 67.6645 132.128 66.5904L133.467 65.2479C134.136 65.9191 135.073 66.1877 136.077 66.1877C137.349 66.1877 137.951 65.7178 137.951 64.8451C137.951 64.4423 137.817 64.1738 137.617 63.9053C137.416 63.7039 137.148 63.5697 136.679 63.5026L135.408 63.3012C134.471 63.1669 133.801 62.8984 133.333 62.4285C132.797 61.8915 132.53 61.2202 132.53 60.2805C132.53 58.3338 133.935 56.9912 136.278 56.9912C137.75 56.9912 138.821 57.3268 139.758 58.2666L138.42 59.6092C137.75 58.9379 136.947 58.8708 136.211 58.8708C135.073 58.8708 134.538 59.4749 134.538 60.2133C134.538 60.4818 134.605 60.7503 134.872 61.0189C135.073 61.2202 135.408 61.3545 135.876 61.4216L137.148 61.623C138.152 61.7573 138.754 62.0258 139.223 62.4285C139.825 62.9655 140.026 63.7711 140.026 64.7109C140.093 66.8589 138.353 68.0001 136.077 68.0001Z"></path>
<path fill="#1658B3" d="M145.984 68.0001C144.378 68.0001 143.106 67.6645 142.035 66.5904L143.374 65.2479C144.043 65.9191 144.98 66.1877 145.984 66.1877C147.256 66.1877 147.858 65.7178 147.858 64.8451C147.858 64.4423 147.725 64.1738 147.524 63.9053C147.323 63.7039 147.055 63.5697 146.587 63.5026L145.315 63.3012C144.378 63.1669 143.709 62.8984 143.24 62.4285C142.705 61.8915 142.437 61.2202 142.437 60.2805C142.437 58.3338 143.842 56.9912 146.185 56.9912C147.658 56.9912 148.729 57.3268 149.666 58.2666L148.327 59.6092C147.658 58.9379 146.854 58.8708 146.118 58.8708C144.98 58.8708 144.445 59.4749 144.445 60.2133C144.445 60.4818 144.512 60.7503 144.779 61.0189C144.98 61.2202 145.315 61.3545 145.783 61.4216L147.055 61.623C148.059 61.7573 148.662 62.0258 149.13 62.4285C149.733 62.9655 149.933 63.7711 149.933 64.7109C150 66.8589 148.26 68.0001 145.984 68.0001Z"></path>
<path fill="#1658B3" d="M113.32 25.0385L106.627 21.5479C105.02 15.5064 99.5317 11.076 93.0391 11.076H50.3349L56.5598 17.3189H93.0391C97.3898 17.3189 100.937 20.8766 100.937 25.2399C100.937 27.5222 99.9333 29.6032 98.3269 31.08C93.6415 35.9131 86.948 38.9339 79.5183 38.9339C72.9587 38.9339 67.1354 36.7187 62.5839 32.8924L29.9199 0V8.39092L55.0873 33.6308C56.0913 34.772 57.1622 35.846 58.3001 36.8529L58.434 36.9872C64.0565 41.7532 71.4193 44.6397 79.5183 44.6397C88.0859 44.6397 95.8503 41.4176 101.54 36.1145C103.882 34.1678 105.824 31.2813 106.694 28.1264L113.32 25.0385Z"></path>
<path fill="#1658B3" d="M93.1728 24.8371C94.4666 24.8371 95.5155 23.7852 95.5155 22.4876C95.5155 21.1901 94.4666 20.1382 93.1728 20.1382C91.8789 20.1382 90.8301 21.1901 90.8301 22.4876C90.8301 23.7852 91.8789 24.8371 93.1728 24.8371Z"></path>
</g>
<defs>
<clipPath id="clip0">
<rect fill="white" height="68" width="150"></rect>
</clipPath>
</defs>
</svg>
