<svg xmlns="http://www.w3.org/2000/svg" fill="none" viewBox="0 0 115 118" height="118" width="115">
<path fill="#1658B3" d="M100.401 48.0029C96.401 48.0276 93.907 48.1758 90.2278 49.0154C93.1164 51.1296 96.0142 53.2316 98.9115 55.3332C104.237 59.1961 109.56 63.0577 114.822 66.9918C109.118 75.5602 98.1542 81.3877 89.2401 82.7211C86.5238 78.8197 84.5978 74.1527 83.2397 68.9178C80.5235 72.8193 71.3624 81.6593 57.4109 81.6593C42.2989 81.6593 34.2737 72.8193 31.5822 68.9178C30.2241 74.1527 28.298 78.8197 25.5818 82.7211C16.6677 81.3877 5.67936 75.5849 0 66.9918C5.8026 62.6221 11.6939 58.3539 17.5832 54.0872C19.9141 52.3984 22.2447 50.7099 24.5694 49.0154C20.8655 48.1758 18.3962 48.0276 14.3713 48.0029C14.5551 46.6653 14.798 45.2981 15.0371 43.9519C15.3763 42.0428 15.708 40.1761 15.8528 38.4962C16.0518 38.5148 16.2426 38.5339 16.4269 38.5523C17.7064 38.68 18.6753 38.7768 19.9272 38.4962C20.3737 38.4032 24.4237 35.534 29.4991 31.9383C31.1591 30.7622 32.9289 29.5084 34.7182 28.2486C24.8163 9.30921 13.3342 20.9643 13.3342 20.9643C10.371 8.46966 23.8286 0 23.8286 0C32.9403 6.5683 38.8419 18.1493 41.2865 23.6558C45.0892 21.0383 48.4227 18.8654 50.2747 17.8776C50.398 17.8129 50.5221 17.7475 50.647 17.6817C52.5242 16.6929 54.5818 15.609 56.5961 15.2849C56.843 15.2602 57.0899 15.2355 57.3615 15.2355C57.3615 15.2355 57.9542 15.2355 58.2011 15.2849C60.2703 15.6179 62.3623 16.7297 64.3008 17.7599C64.3749 17.7993 64.4488 17.8385 64.5225 17.8776C66.3745 18.8654 69.708 21.063 73.5107 23.6558C75.9553 18.1493 81.8569 6.593 90.9686 0C90.9686 0 104.451 8.46966 101.463 20.9643C101.463 20.9643 89.9808 9.30921 80.079 28.2486C81.8683 29.5084 83.638 30.7622 85.2981 31.9383C90.3735 35.534 94.4235 38.4032 94.87 38.4962C96.1306 38.7787 97.1234 38.6787 98.404 38.5496C98.5783 38.5321 98.7579 38.5139 98.9444 38.4962C99.0908 40.195 99.4196 42.0849 99.7557 44.0165C99.9864 45.3418 100.22 46.6867 100.401 48.0029ZM57.3369 77.2393H57.4109C71.9797 77.2146 83.857 65.1398 84.7459 49.8796H45.583L39.0147 33.9527L37.5085 34.5947L44.1262 49.8796H42.2248L33.6317 39.6321L32.3971 40.6939L40.3975 49.8796H30.0265C30.8908 65.1398 42.7928 77.2393 57.3369 77.2393Z" clip-rule="evenodd" fill-rule="evenodd"></path>
<path fill="#1658B3" d="M30.002 107.143H32.6688L34.5701 113.538H34.5948V107.143H36.7431V116.995H34.1257L32.1008 110.204H32.0762V116.995H30.002V107.143Z"></path>
<path fill="#1658B3" d="M38.5205 112.081C38.5205 115.217 38.9403 117.193 41.9775 117.193C45.2617 117.193 45.4345 114.797 45.4345 112.081C45.4345 109.365 45.2617 106.97 41.9775 106.97C38.9403 106.97 38.5205 108.945 38.5205 112.081ZM43.0393 112.081C43.0393 114.773 42.8911 115.637 41.9528 115.637C41.0392 115.637 40.9157 114.773 40.9157 112.081C40.9157 109.365 41.0392 108.501 41.9528 108.501C42.8911 108.501 43.0393 109.39 43.0393 112.081Z" clip-rule="evenodd" fill-rule="evenodd"></path>
<path fill="#1658B3" d="M46.9658 112.081C46.9658 115.217 47.3856 117.193 50.4228 117.193C53.707 117.193 53.8798 114.797 53.8798 112.081C53.8798 109.365 53.707 106.97 50.4228 106.97C47.3856 106.97 46.9658 108.945 46.9658 112.081ZM51.5093 112.081C51.5093 114.773 51.3612 115.637 50.4228 115.637C49.5092 115.637 49.361 114.773 49.3857 112.081C49.3857 109.365 49.5092 108.501 50.4228 108.501C51.3612 108.501 51.5093 109.39 51.5093 112.081Z" clip-rule="evenodd" fill-rule="evenodd"></path>
<path fill="#1658B3" d="M59.0905 107.143H55.6582V116.97H58.8436C61.9055 116.97 62.35 115.316 62.35 111.735C62.35 108.328 61.387 107.143 59.0905 107.143ZM58.572 115.291H57.9793V108.871H58.6213C59.8313 108.871 60.0288 109.513 60.0288 111.908C60.0288 114.871 59.6338 115.291 58.572 115.291Z" clip-rule="evenodd" fill-rule="evenodd"></path>
<path fill="#1658B3" d="M64.1025 107.143H66.4237V115.118H69.7819V116.995H64.1025V107.143Z"></path>
<path fill="#1658B3" d="M71.042 107.143H76.7214V109.019H73.3631V110.995H76.5238V112.871H73.3631V115.118H76.8942V116.995H71.042V107.143Z"></path>
<path fill="#1658B3" d="M80.3998 113.983V114.328C80.3998 115.069 80.5974 115.637 81.4122 115.637C82.2271 115.637 82.4493 115.02 82.4493 114.476C82.4493 112.353 78.2268 113.538 78.2268 109.859C78.2268 108.278 79.0664 106.97 81.4616 106.97C83.7827 106.97 84.5976 108.13 84.5976 109.661V109.883H82.3752C82.3752 109.414 82.3259 109.069 82.1777 108.846C82.0295 108.599 81.8073 108.501 81.4863 108.501C80.9184 108.501 80.5727 108.846 80.5727 109.562C80.5727 111.612 84.7951 110.575 84.7951 114.057C84.7951 116.279 83.5605 117.193 81.4369 117.193C79.7578 117.193 78.2021 116.674 78.2021 114.625V113.983H80.3998Z"></path>
<path fill="#1658B3" d="M18.6436 87.2148H22.4463V93.5856H22.471L26.0267 87.2148H30.1257L25.9033 94.1782L30.6443 103.364H26.3724L23.4587 97.2648L22.4463 98.8452V103.364H18.6436V87.2148Z"></path>
<path fill="#1658B3" d="M40.2502 87.2148H35.5092L31.4102 103.364H35.3363L35.9043 100.277H39.7563L40.349 103.364H44.2751L40.2502 87.2148ZM37.7809 90.1533H37.8303L39.2131 97.3389H36.4475L37.7809 90.1533Z" clip-rule="evenodd" fill-rule="evenodd"></path>
<path fill="#1658B3" d="M46.4229 87.2148H52.3244C55.0901 87.2148 56.9173 88.4989 56.9173 91.1904C56.9173 93.0671 55.9296 94.5486 54.374 94.8202V94.8696C55.5839 95.0425 57.3618 95.561 57.3618 98.8699C57.3618 100.771 56.5222 103.339 52.0281 103.339H46.4229V87.2148ZM50.2256 93.6597H51.2627C52.5714 93.6597 53.1146 92.9189 53.1146 91.7583C53.1146 90.9188 52.6701 90.0051 51.2873 90.0051H50.2256V93.6597ZM51.3861 100.549H50.2256H50.2009V96.1784H51.4355C52.6208 96.1784 53.4356 96.8698 53.4356 98.4501C53.4356 99.586 52.9171 100.549 51.3861 100.549Z" clip-rule="evenodd" fill-rule="evenodd"></path>
<path fill="#1658B3" d="M70.7459 98.0303C70.7459 101.191 69.8322 103.685 65.4369 103.685C61.0169 103.685 60.1279 101.191 60.1279 98.0303V87.2148H63.9306V99.1415C63.9306 100.401 64.4245 101.166 65.4369 101.166C66.4493 101.166 66.9432 100.426 66.9432 99.1415V87.2148H70.7459V98.0303Z"></path>
<path fill="#1658B3" d="M76.129 90.2768H72.7461V87.2148H83.3393V90.2768H79.9317V103.364H76.129V90.2768Z"></path>
<path fill="#1658B3" d="M84.7715 95.2896C84.7715 100.426 85.4629 103.685 90.4508 103.685C95.8339 103.685 96.1302 99.759 96.1302 95.2896C96.1302 90.8202 95.8339 86.894 90.4508 86.894C85.4382 86.894 84.7715 90.1535 84.7715 95.2896ZM92.204 95.2896C92.204 99.7096 91.9571 101.142 90.4262 101.142C88.9446 101.142 88.7223 99.7096 88.6977 95.2896C88.6977 90.8696 88.9446 89.4374 90.4262 89.4374C91.9818 89.4374 92.204 90.8449 92.204 95.2896Z" clip-rule="evenodd" fill-rule="evenodd"></path>
</svg>
