<svg xmlns="http://www.w3.org/2000/svg" fill="none" viewBox="0 0 94 69" height="69" width="94">
<path fill="#1658B3" d="M1.56445 0.520508H16.2336C25.1864 0.520508 29.6256 6.98092 29.6256 13.4413C29.6256 19.9017 25.1368 26.4241 16.2832 26.4241H10.8645V37.1253H1.60165L1.56445 0.520508ZM16.2336 18.2029C21.826 18.2029 21.826 9.10134 16.2336 9.15094H10.8645V18.2029H16.2336Z"></path>
<path fill="#1658B3" d="M42.979 25.4941H41.3298V37.1253H31.9678V0.520508H46.5998C54.1514 0.520508 59.9918 3.98013 60.2398 12.5609C60.2398 19.3437 57.4994 23.1629 53.0478 24.5641L62.9678 37.1253H51.4358L42.979 25.4941ZM46.761 17.5333C47.8725 17.5333 48.9386 17.0918 49.7246 16.3058C50.5106 15.5198 50.9522 14.4537 50.9522 13.3421C50.9522 12.2305 50.5106 11.1645 49.7246 10.3785C48.9386 9.59248 47.8725 9.15094 46.761 9.15094H41.3298V17.5333H46.761Z"></path>
<path fill="#1658B3" d="M62.6348 12.5612C62.6348 4.14161 70.1864 0 77.7876 0C85.3888 0 92.99 4.19121 92.99 12.5612V25.0976C92.99 33.48 85.4383 37.6712 77.8371 37.6712C70.2359 37.6712 62.6348 33.48 62.6348 25.0976V12.5612ZM71.8976 25.0976C71.8976 27.7884 74.8859 29.078 77.8371 29.078C80.7883 29.078 83.7396 27.7388 83.7396 25.0976V12.5612C83.7396 9.72161 80.6767 8.43198 77.6883 8.43198C74.6999 8.43198 71.8976 9.87041 71.8976 12.5612V25.0976Z"></path>
<path fill="#1658B3" d="M8.7916 67.9649V58.0449L0 42.7681H7.44L12.0032 52.0309L16.554 42.7681H23.994L15.1652 58.0449V67.9649H8.7916Z"></path>
<path fill="#1658B3" d="M22.6562 51.0511C22.6562 45.2479 27.8519 42.3711 33.0847 42.3711C38.3175 42.3711 43.5378 45.2479 43.5378 51.0511V59.6691C43.5378 65.4351 38.3422 68.3491 33.1094 68.3491C27.8766 68.3491 22.6562 65.4723 22.6562 59.6691V51.0511ZM29.0175 59.6691C29.0175 61.5167 31.0882 62.4095 33.1094 62.4095C35.1306 62.4095 37.1767 61.4795 37.1767 59.6691V51.0511C37.1767 49.0919 35.0687 48.2115 33.0103 48.2115C30.9519 48.2115 29.0175 49.2035 29.0175 51.0511V59.6691Z"></path>
<path fill="#1658B3" d="M52.1938 59.5202C52.1938 63.575 59.3858 63.575 59.423 59.5202V42.7554H65.8338V59.5202C65.8338 71.3374 45.6962 71.3374 45.7334 59.5202V42.7554H52.1938V59.5202Z"></path>
<path fill="#1658B3" d="M76.6718 46.2645V57.3377H72.9518V46.2397H69.083V42.7305H80.553V46.2397L76.6718 46.2645Z"></path>
<path fill="#1658B3" d="M85.0784 57.3379H81.3584V42.7803H85.0784V48.2983H89.282V42.7803H93.002V57.3379H89.282V51.8447H85.0784V57.3379Z"></path>
<path fill="#1658B3" d="M92.9756 63.2148H69.0684V67.964H92.9756V63.2148Z"></path>
</svg>
