<svg xmlns="http://www.w3.org/2000/svg" fill="none" viewBox="0 0 162 38" height="38" width="162">
<g clip-path="url(#clip0)">
<path fill="#1658B3" d="M58.924 12.9035C58.1951 13.0734 54.7325 14.9024 54.5503 14.9024C54.4491 12.9835 53.6897 12.9935 53.4062 13.0435C53.1228 13.0934 52.2419 13.2833 52.2521 14.6625V15.9018L46.3901 18.5203C45.6307 18.89 45.9446 19.6696 46.6634 19.9894C47.6759 20.4491 50.9865 18.6502 52.2723 18.1005C52.2723 19.0999 51.999 24.097 52.0597 25.0964C52.0597 25.4162 52.0597 27.0453 53.224 26.7854C55.1881 26.3557 54.6515 17.0611 54.6515 17.0611C55.664 16.6214 56.8283 16.0617 57.3952 15.7519C60.878 13.903 59.9162 12.7036 58.924 12.9035Z"></path>
<path fill="#1658B3" d="M28.5808 14.2426C26.7686 12.1938 24.0856 13.3732 12.149 17.9005V15.9017C12.149 15.9017 20.0359 8.34609 21.3622 6.84696C24.1261 3.71879 25.4828 0.470682 23.5389 0.13088C20.7952 -0.408805 15.0142 2.90926 12.149 4.70821V3.59886C12.149 2.94924 11.987 2.37957 11.2783 2.47951C10.1241 2.63942 10.2152 3.90868 10.2051 4.2085V5.95748C10.2051 5.95748 7.23868 7.95631 5.90227 8.95573C4.49854 9.99721 3.16598 11.129 1.91327 12.3438C1.57916 12.6636 1.22481 13.0234 0.90083 13.4031C-0.445711 14.7823 0.0706314 16.0616 0.262994 16.2615C1.27543 17.2609 3.14844 16.3814 3.81665 16.0916C3.92802 16.0416 5.59854 15.1821 5.38592 14.4725C5.17331 13.7629 3.49267 14.3326 3.3003 14.4125C3.12189 14.4778 2.93924 14.5313 2.75359 14.5725C4.37437 12.9021 6.16578 11.4016 8.09925 10.0951C8.37261 9.90518 9.26356 9.20558 10.195 8.63592C10.195 8.69588 10.195 11.0945 10.195 12.9034V14.1127C10.195 14.4825 10.195 14.7523 10.195 14.8323C9.48629 15.5619 5.49729 18.83 5.3758 19.7194C5.0012 22.5178 9.00032 20.6089 10.2051 20.2791V31.1028C10.1977 31.2049 10.1773 31.3056 10.1444 31.4026C9.85077 31.7025 7.38042 33.1316 7.53229 34.4009C7.56633 34.626 7.67721 34.8329 7.84658 34.9874C8.01596 35.1419 8.23368 35.2347 8.46373 35.2504C8.68396 35.2475 8.89722 35.1738 9.07119 35.0405L9.39517 34.7907C10.6708 33.7812 31.7397 17.8006 28.5808 14.2426ZM21.9798 2.16969C22.2227 2.16969 22.2531 2.3296 22.243 2.41954C22.0709 3.81873 12.797 12.9034 12.7565 12.9034C12.4527 13.1733 12.2705 13.3132 12.1693 13.3931C12.1693 12.4537 12.1693 7.87636 12.1693 7.30669V7.24673C13.7892 6.14737 20.8256 2.01978 21.9798 2.16969ZM7.97776 19.2797C8.41311 18.83 9.88114 17.5707 10.2051 17.2809V18.5002C9.7394 18.6701 8.22075 19.2497 7.97776 19.2797ZM12.3211 29.7036C12.3211 29.6037 12.1693 19.5795 12.1693 19.5795C12.1693 19.5795 23.9641 14.8023 26.2624 15.0022C26.6775 15.0022 26.7686 15.2121 26.7686 15.412C26.7686 17.5107 14.4169 28.0146 12.3211 29.7036Z"></path>
<path fill="#1658B3" d="M35.0106 19.6796C34.922 22.2158 34.9761 24.7549 35.1726 27.2852C35.3143 28.7444 36.2862 29.284 36.8633 29.284C37.8758 29.284 37.9871 28.7743 37.9871 28.0847C37.9871 26.9054 36.8937 27.5151 36.8431 21.6785C36.8431 20.4492 37.4506 14.4927 35.8307 14.4927C34.6157 14.4927 34.4335 16.0118 34.069 17.2011C33.8463 17.9307 31.7303 25.5362 30.566 25.3264C30.4546 25.3264 30.1003 24.8966 30.9406 21.3287C31.2139 20.1594 31.4671 19.03 31.7505 17.9906C31.7863 17.865 31.7949 17.7333 31.7757 17.6041C31.7565 17.475 31.71 17.3513 31.6392 17.2411C31.4448 17.0542 31.1927 16.9369 30.9229 16.9079C30.6532 16.879 30.3814 16.9399 30.1509 17.0812C29.9767 17.2391 29.8535 17.4442 29.7965 17.6708C29.5232 18.6702 29.2296 19.8795 28.9461 21.1488C28.677 22.3434 28.5379 23.5629 28.531 24.7867C28.531 25.0065 28.2779 27.9848 30.1509 28.1247C32.682 28.2546 34.8688 20.1694 35.0106 19.6796Z"></path>
<path fill="#1658B3" d="M44.618 22.4377C44.3548 22.4377 40.8619 22.4377 40.5075 21.3683C40.2038 20.4888 41.7832 17.5105 44.213 16.671C45.1343 16.3512 45.1343 15.9315 45.1445 15.1919C45.1445 14.2624 44.5573 13.9626 42.9576 14.7422C41.6358 15.3662 40.5103 16.3324 39.7008 17.538C38.8914 18.7436 38.4284 20.1434 38.3611 21.5882C38.3304 21.948 38.4106 22.3085 38.5913 22.6225C38.772 22.9364 39.0447 23.1891 39.3736 23.3471C40.0164 23.6448 40.6978 23.8533 41.3985 23.9668C42.178 24.0967 42.9374 24.2066 43.6562 24.2966C44.5978 24.4165 45.0736 24.3965 45.0534 25.296C45.0641 25.845 44.9166 26.3856 44.6281 26.8551C43.5347 28.4841 41.6819 30.8927 33.3395 36.3595C33.1896 36.4661 33.0669 36.6055 32.9808 36.7667C32.8947 36.928 32.8477 37.1068 32.8434 37.289C32.8291 37.4249 32.8585 37.5618 32.9276 37.6803C32.9967 37.7987 33.1018 37.8926 33.2281 37.9486C34.362 38.3184 46.7036 31.3824 47.2807 24.8862C47.3718 23.8069 47.2807 22.5376 44.618 22.4377Z"></path>
<path fill="#1658B3" d="M71.3972 22.0381C71.0833 21.4385 70.9416 21.2586 68.7041 21.6084L62.6295 22.7977C62.769 22.0643 63.1805 21.4086 63.7837 20.9587C65.8085 19.5396 68.8459 17.141 68.937 17.031C71.5086 14.9522 66.2034 15.1521 66.0414 15.1821C66.8398 14.6134 67.6677 14.0863 68.5219 13.603C70.1823 12.6036 71.296 12.9134 71.4782 11.7841C71.6604 10.6547 70.1317 10.5448 66.2236 12.9034C65.9526 13.0808 65.6374 13.181 65.3125 13.1933C65.1808 13.1933 65.3125 11.6042 64.1887 12.6436C63.506 13.3607 62.9175 14.1599 62.4371 15.0222C62.3156 15.302 62.0018 16.0216 62.5586 16.4114C62.5858 16.4959 62.5858 16.5867 62.5586 16.6712C62.5146 16.8408 62.4605 17.0077 62.3966 17.1709C62.3258 17.3608 62.2549 17.5607 62.2144 17.7106C61.8466 18.8035 61.4 19.8689 60.878 20.8988C60.5844 21.2086 60.2806 21.5084 59.987 21.7783C59.6934 22.0481 57.4762 23.5372 59.0455 24.7765C59.2753 24.8924 59.5269 24.9605 59.7845 24.9764C59.7845 25.2662 57.9824 28.6243 58.1242 29.9735C58.1748 30.4732 58.6506 30.793 59.3695 30.793C62.913 30.783 72.4805 24.0669 71.3972 22.0381ZM68.9775 23.2374L68.8864 23.3074C68.4915 23.6172 64.0469 27.355 61.2222 28.2145C60.5743 28.4144 61.7689 25.4661 61.9613 25.1363C62.0455 24.9478 62.1772 24.7836 62.3437 24.6595C62.5103 24.5353 62.7062 24.4552 62.913 24.4267L68.9775 23.2374ZM63.6824 19.1098C63.8039 18.75 64.4215 16.6313 65.1403 16.4514C65.9249 16.3091 66.7256 16.2755 67.5196 16.3514C66.821 16.8411 64.0975 18.84 63.6824 19.1098Z"></path>
<path fill="#1658B3" d="M78.4028 21.8982C78.6053 21.3785 83.465 16.0116 83.465 13.0533C83.465 12.0539 83.2727 11.0545 81.9869 10.8446C80.9744 10.6947 78.9496 11.5642 76.9247 14.8423C76.6513 14.8423 76.6513 14.0827 76.2767 14.1427C75.3959 14.2826 72.9559 18.4802 73.6241 24.4567C73.9582 27.4549 75.649 29.5937 77.1879 29.3438C78.4636 29.2239 77.7751 23.837 77.8561 23.877C77.9371 23.917 83.546 28.1345 84.9432 28.5243C85.5405 28.6942 86.0569 28.4444 85.8443 27.7048C85.4899 26.4555 78.4028 21.8982 78.4028 21.8982ZM77.6435 19.8993C77.5164 18.8403 77.5164 17.7702 77.6435 16.7112C77.846 16.1315 80.4378 12.3837 81.5414 13.1233C82.2501 13.633 78.0586 19.9693 77.6435 19.8993ZM76.3678 28.0946C73.6343 25.1463 75.5984 18.0304 75.8616 19.6295C76.0844 20.2891 76.3678 28.0846 76.3678 28.0846V28.0946Z"></path>
<path fill="#1658B3" d="M161.989 13.743C161.994 13.4374 161.963 13.1323 161.898 12.8335C161.843 12.6374 161.717 12.4684 161.543 12.3594C161.369 12.2505 161.16 12.2093 160.957 12.2439C160.471 12.2439 160.228 12.8036 159.944 13.3632C159.789 13.7202 159.589 14.0561 159.347 14.3626C158.732 15.0367 158.054 15.6523 157.322 16.2016C156.634 16.7113 155.935 17.201 155.297 17.6108C154.59 18.0815 153.857 18.5119 153.1 18.9L152.381 19.2698C151.828 19.5967 151.245 19.8711 150.64 20.0893V16.1816C150.64 15.542 150.306 15.1822 149.729 15.1822C149.152 15.1822 148.828 15.552 148.828 16.1816V24.5067C148.821 24.6111 148.836 24.7157 148.873 24.8138C148.91 24.9119 148.967 25.0013 149.04 25.0764C149.166 25.2078 149.334 25.2925 149.516 25.3163C149.667 25.3205 149.817 25.2953 149.958 25.2421C150.098 25.1889 150.227 25.1088 150.336 25.0064C150.514 24.8169 150.649 24.592 150.731 24.3468C150.813 24.1041 150.864 23.8523 150.883 23.5973C150.909 23.0014 151.149 22.4342 151.561 21.9982C151.858 21.7046 152.2 21.4585 152.574 21.2686C152.979 21.0587 158.881 17.7307 159.59 17.0911C159.59 17.4508 159.59 17.9106 159.59 18.4603C159.59 19.3997 159.286 34.7807 159.286 36.4498C159.286 37.3193 159.448 37.5991 159.529 37.679C159.623 37.7648 159.733 37.8311 159.853 37.874C159.973 37.917 160.1 37.9356 160.228 37.9289C160.744 37.9289 161.473 37.6591 161.483 37.1493C161.493 36.6396 161.767 29.8436 161.746 25.746C161.757 22.1681 161.989 17.4309 161.989 13.743Z"></path>
<path fill="#1658B3" d="M145.639 23.8969C145.123 24.1668 139.909 26.5354 139.655 25.576C139.739 24.3444 140.03 23.1352 140.516 21.998C142.754 16.3613 145.791 15.1021 145.892 14.9022C146.002 14.8256 146.093 14.7266 146.16 14.6118C146.227 14.4971 146.269 14.3694 146.281 14.2374C146.294 14.1055 146.277 13.9725 146.233 13.8474C146.188 13.7224 146.117 13.6083 146.024 13.513C145.935 13.4133 145.826 13.3333 145.704 13.2782C145.582 13.2231 145.449 13.1941 145.315 13.1932C145.064 13.1873 144.818 13.2647 144.616 13.4131C140.909 16.2754 138.406 20.3908 137.59 24.9663C137.054 27.3649 138.4 27.7747 139.342 27.7747C142.541 27.7747 146.53 25.8558 147.229 24.3067C147.502 23.717 146.803 23.2773 145.639 23.8969Z"></path>
<path fill="#1658B3" d="M136.122 15.8117C135.009 15.4819 134.563 17.9705 134.259 19.0498C134.037 19.8694 132.963 24.4967 132.072 24.5366C130.28 24.6066 128.367 15.7817 125.633 15.7817C124.955 15.7817 124.621 16.0816 124.479 16.8511C124.479 16.8511 123.679 23.2674 123.406 25.1962C123.244 26.3156 124.489 27.0352 125.178 25.8559C125.694 24.9964 126.048 21.8582 126.119 21.4384C126.19 21.0187 126.534 19.6195 127.192 20.9287C127.527 21.6183 129.389 26.6154 131.961 26.8253C135.748 27.1451 137.924 16.2715 136.122 15.8117Z"></path>
<path fill="#1658B3" d="M95.7157 19.1698C94.7033 19.2997 93.6908 19.4097 92.7493 19.5196V16.3115C92.7493 15.472 90.6434 15.8817 90.6434 16.6213V19.7195C89.8537 19.7894 89.0741 19.8694 88.2844 19.9294C87.4947 19.9893 86.7455 22.0081 87.6972 21.9282C88.6489 21.8482 89.6613 21.7683 90.6434 21.6783V24.7765C90.6434 25.616 92.7391 25.2163 92.7391 24.4767V21.4785L95.169 21.1886C96.0093 21.0687 96.6168 19.0499 95.7157 19.1698Z"></path>
<path fill="#1658B3" d="M106.104 23.9669C110.346 18.3702 116.987 8.10616 116.734 3.33894C116.38 -3.41712 108.635 1.15022 105.061 8.27606C105.061 8.21609 104.767 1.38008 103.765 1.34011C103.218 1.34011 103.087 1.52999 102.955 1.98973C102.641 3.04911 103.208 11.814 103.208 11.814C100.404 18.63 100.647 32.7418 104.615 35.1204C107.319 36.7394 105.851 24.2867 106.104 23.9669ZM103.623 15.4319C103.623 15.7117 104.636 33.5613 104.636 33.5613C102.58 31.3426 102.013 20.1291 103.623 15.4319ZM105.355 12.3637C105.683 11.3381 106.128 10.3525 106.681 9.42539C107.256 8.31635 107.933 7.26243 108.706 6.27722C109.417 5.37375 110.236 4.55832 111.146 3.84864C111.801 3.28662 112.628 2.95608 113.494 2.90919C113.636 2.89992 113.776 2.93077 113.9 2.99808C114.024 3.0654 114.126 3.16635 114.193 3.28897C114.368 3.62964 114.458 4.00646 114.456 4.38833C114.608 8.38599 106.073 21.3784 105.81 21.6183C105.81 21.6183 105.182 13.0633 105.355 12.3637Z"></path>
<path fill="#1658B3" d="M120.936 16.2412C120.936 16.0413 120.936 15.8414 120.936 15.6316C120.919 15.4152 120.85 15.2059 120.733 15.0219C120.67 14.9248 120.583 14.8453 120.481 14.791C120.378 14.7367 120.262 14.7096 120.146 14.7121C119.888 14.7033 119.635 14.7808 119.427 14.932C118.556 15.5116 116.39 19.8091 113.545 26.7351C113.505 26.8123 113.471 26.8925 113.444 26.9749L113.261 27.3147V26.895C113.261 25.4758 113.018 20.2789 113.008 19.7692C113.008 18.8497 112.441 18.7697 112.168 18.7697C111.672 18.7697 111.429 19.1695 111.368 20.099C111.368 20.3688 111.297 27.6845 111.479 29.1937C111.479 29.5235 111.955 29.9132 112.492 30.0831C112.687 30.1607 112.9 30.1831 113.108 30.1478C113.315 30.1125 113.509 30.0209 113.666 29.8833C115.6 27.8245 118.637 19.6492 118.668 19.5693C118.698 19.4893 118.485 24.7163 118.485 25.9655C118.485 26.0855 118.485 26.3453 118.485 26.7051C118.506 27.1042 118.553 27.5015 118.627 27.8944C118.699 28.279 118.804 28.6568 118.941 29.0238C119.103 29.4235 119.346 29.6434 119.66 29.6434C119.885 29.6141 120.092 29.5045 120.241 29.3351C120.391 29.1657 120.472 28.9484 120.47 28.7239V28.2342C120.47 27.1748 120.47 24.3465 120.632 22.7374C120.856 20.7463 120.968 18.7443 120.966 16.7409L120.936 16.2412Z"></path>
</g>
<defs>
<clipPath id="clip0">
<rect fill="white" height="38" width="162"></rect>
</clipPath>
</defs>
</svg>
