<svg xmlns="http://www.w3.org/2000/svg" viewBox="0 0 1060 527" width="1060" height="527" preserveAspectRatio="xMidYMid slice" style="width: 100%; height: 100%; transform: translate3d(0px, 0px, 0px);"><defs><clipPath id="__lottie_element_2"><rect width="1060" height="527" x="0" y="0"></rect></clipPath><clipPath id="__lottie_element_4"><path d="M0,0 L1060,0 L1060,527 L0,527z"></path></clipPath><clipPath id="__lottie_element_14"><path d="M0,0 L1060,0 L1060,527 L0,527z"></path></clipPath><clipPath id="__lottie_element_18"><path d="M0,0 L1060,0 L1060,527 L0,527z"></path></clipPath><clipPath id="__lottie_element_34"><path d="M0,0 L1060,0 L1060,527 L0,527z"></path></clipPath><clipPath id="__lottie_element_47"><path d="M0,0 L1060,0 L1060,527 L0,527z"></path></clipPath></defs><g clip-path="url(#__lottie_element_2)"><g clip-path="url(#__lottie_element_4)" transform="matrix(1,0,0,1,0,0)" opacity="1" style="display: block;"><g clip-path="url(#__lottie_element_47)" transform="matrix(1,0,0,1,0,0)" opacity="1" style="display: block;"><g transform="matrix(1,0,0,1,9.05999755859375,-27.133010864257812)" opacity="1" style="display: block;"><g opacity="1" transform="matrix(1,0,0,1,607.1530151367188,372.76800537109375)"><path fill="rgb(238,225,217)" fill-opacity="1" d=" M435.72601318359375,115.66600036621094 C401.2659912109375,104.24199676513672 322.22100830078125,97.4260025024414 313.1000061035156,90.60700225830078 C313.1000061035156,90.60700225830078 58.64400100708008,-119.44300079345703 58.64400100708008,-119.44300079345703 C18.660999298095703,-151.77999877929688 -43.249000549316406,-124.23300170898438 -78.44200134277344,-93.27899932861328 C-112.16100311279297,-59.37699890136719 -139.98300170898438,-28.881999969482422 -234.875,-2.3499999046325684 C-442.9909973144531,55.78300094604492 -262.8810119628906,151.77999877929688 -152.23599243164062,122.02300262451172 C-90.23400115966797,104.427001953125 5.394000053405762,-3.4539999961853027 5.394000053405762,-3.4539999961853027 C43.62699890136719,44.08300018310547 158.6020050048828,84.80400085449219 264.1809997558594,126.26200103759766 C266.4840087890625,131.9739990234375 269.7080078125,136.57899475097656 273.5790100097656,139.0659942626953 C276.1570129394531,140.7259979248047 286.20001220703125,141.8300018310547 300.47900390625,142.38400268554688 C301.4930114746094,142.4759979248047 302.4150085449219,142.4759979248047 303.427001953125,142.4759979248047 C338.9880065917969,143.58099365234375 397.7659912109375,141.18600463867188 435.1659851074219,134.2760009765625 C444.1059875488281,134.73599243164062 446.7760009765625,119.35199737548828 435.72601318359375,115.66600036621094z"></path></g><g opacity="1" transform="matrix(1,0,0,1,962.4949951171875,513.125)"><path fill="rgb(13,60,136)" fill-opacity="1" d=" M76.05400085449219,0.18400000035762787 C19.94499969482422,3.5 -32.20000076293945,6.817999839782715 -83.05400085449219,1.565999984741211 C-83.05400085449219,1.565999984741211 -82.96299743652344,-2.6710000038146973 -82.96299743652344,-2.6710000038146973 C-82.96299743652344,-2.6710000038146973 83.05400085449219,-6.817999839782715 83.05400085449219,-6.817999839782715 C83.05400085449219,-6.817999839782715 76.05400085449219,0.18400000035762787 76.05400085449219,0.18400000035762787z"></path></g><g opacity="1" transform="matrix(1,0,0,1,973.7360229492188,492.3039855957031)"><path fill="rgb(13,60,136)" fill-opacity="1" d=" M43.16400146484375,-12.069000244140625 C35.233001708984375,-11.97700023651123 27.493999481201172,-11.70199966430664 19.763999938964844,-11.055999755859375 C12.020999908447266,-10.319000244140625 4.374000072479248,-9.21399974822998 -3.0880000591278076,-7.372000217437744 C-10.550999641418457,-5.5279998779296875 -17.827999114990234,-2.9489998817443848 -24.738000869750977,0.45899999141693115 C-26.488000869750977,1.2879999876022339 -28.14699935913086,2.2090001106262207 -29.805999755859375,3.2239999771118164 C-31.371000289916992,4.236999988555908 -32.84600067138672,5.5269999504089355 -34.319000244140625,6.724999904632568 C-37.268001556396484,9.303999900817871 -40.12300109863281,12.067999839782715 -43.16400146484375,14.555999755859375 C-40.58399963378906,11.607999801635742 -38.18899917602539,8.475000381469727 -35.518001556396484,5.618000030517578 C-34.13600158691406,4.144999980926514 -32.84600067138672,2.6700000762939453 -31.187999725341797,1.3799999952316284 C-29.52899932861328,0.18400000035762787 -27.961999893188477,-1.0140000581741333 -26.30500030517578,-2.121000051498413 C-19.57900047302246,-6.449999809265137 -12.02400016784668,-9.489999771118164 -4.285999774932861,-11.517000198364258 C3.453000068664551,-13.543999671936035 11.468000411987305,-14.46500015258789 19.393999099731445,-14.557000160217285 C27.493999481201172,-14.557000160217285 35.42399978637695,-13.819999694824219 43.16400146484375,-12.069000244140625z"></path></g></g></g><g clip-path="url(#__lottie_element_14)" transform="matrix(0.9993189573287964,-0.0368996262550354,0.0368996262550354,0.9993189573287964,-12.902130126953125,14.929168701171875)" opacity="1" style="display: block;"><g clip-path="url(#__lottie_element_34)" transform="matrix(1,0,0,1,0,0)" opacity="1" style="display: block;"><g transform="matrix(1,0,0,1,9.05999755859375,-27.133010864257812)" opacity="1" style="display: block;"><g opacity="1" transform="matrix(1,0,0,1,465.46600341796875,208.2740020751953)"><path fill="rgb(238,225,217)" fill-opacity="1" d=" M11.378000259399414,1.2899999618530273 C11.378000259399414,1.2899999618530273 146.89700317382812,-77.2020034790039 146.89700317382812,-77.2020034790039 C159.7030029296875,-85.86199951171875 193.14599609375,-94.43199920654297 194.15899658203125,-63.47700119018555 C195.91000366210938,-28.100000381469727 155.281005859375,-56.65700149536133 147.26600646972656,-43.29999923706055 C109.86299896240234,19.163000106811523 64.0739974975586,78.76899719238281 23.81399917602539,85.49299621582031 C-22.43400001525879,94.43099975585938 -195.91000366210938,-48.090999603271484 -125.89299774169922,-66.51599884033203 C-93.27999877929688,-75.08300018310547 1.1519999504089355,4.882999897003174 11.378000259399414,1.2899999618530273z"></path></g></g><g transform="matrix(0.9999006986618042,0.014090342447161674,-0.014090342447161674,0.9999006986618042,9.1353759765625,-32.70109558105469)" opacity="1" style="display: block;"><g opacity="1" transform="matrix(1,0,0,1,625.8140258789062,135.63099670410156)"><path fill="rgb(255,255,255)" fill-opacity="1" d=" M0.0010000000474974513,-54.95399856567383 C-13.449999809265137,-54.95399856567383 -24.320999145507812,-49.97800064086914 -24.320999145507812,-43.89799880981445 C-24.320999145507812,-43.89799880981445 -24.320999145507812,43.80799865722656 -24.320999145507812,43.80799865722656 C-24.320999145507812,43.80799865722656 -24.320999145507812,44.36000061035156 -24.320999145507812,44.36000061035156 C-24.320999145507812,50.53200149536133 -13.449999809265137,54.95399856567383 0.0010000000474974513,54.95399856567383 C13.451000213623047,54.95399856567383 24.32200050354004,49.98099899291992 24.32200050354004,43.900001525878906 C24.32200050354004,43.900001525878906 24.32200050354004,-43.80699920654297 24.32200050354004,-43.80699920654297 C24.32200050354004,-49.97800064086914 13.451000213623047,-54.95399856567383 0.0010000000474974513,-54.95399856567383z"></path><path stroke-linecap="butt" stroke-linejoin="miter" fill-opacity="0" stroke-miterlimit="10" stroke="rgb(238,225,217)" stroke-opacity="1" stroke-width="0.921" d=" M0.0010000000474974513,-54.95399856567383 C-13.449999809265137,-54.95399856567383 -24.320999145507812,-49.97800064086914 -24.320999145507812,-43.89799880981445 C-24.320999145507812,-43.89799880981445 -24.320999145507812,43.80799865722656 -24.320999145507812,43.80799865722656 C-24.320999145507812,43.80799865722656 -24.320999145507812,44.36000061035156 -24.320999145507812,44.36000061035156 C-24.320999145507812,50.53200149536133 -13.449999809265137,54.95399856567383 0.0010000000474974513,54.95399856567383 C13.451000213623047,54.95399856567383 24.32200050354004,49.98099899291992 24.32200050354004,43.900001525878906 C24.32200050354004,43.900001525878906 24.32200050354004,-43.80699920654297 24.32200050354004,-43.80699920654297 C24.32200050354004,-49.97800064086914 13.451000213623047,-54.95399856567383 0.0010000000474974513,-54.95399856567383z"></path></g><g opacity="1" transform="matrix(1,0,0,1,625.8140258789062,91.82499694824219)"><path fill="rgb(255,255,255)" fill-opacity="1" d=" M0.0010000000474974513,11.055000305175781 C-13.432000160217285,11.055000305175781 -24.320999145507812,6.105999946594238 -24.320999145507812,-0.0010000000474974513 C-24.320999145507812,-6.105999946594238 -13.432000160217285,-11.055000305175781 0.0010000000474974513,-11.055000305175781 C13.432999610900879,-11.055000305175781 24.32200050354004,-6.105999946594238 24.32200050354004,-0.0010000000474974513 C24.32200050354004,6.105999946594238 13.432999610900879,11.055000305175781 0.0010000000474974513,11.055000305175781z"></path><path stroke-linecap="butt" stroke-linejoin="miter" fill-opacity="0" stroke-miterlimit="10" stroke="rgb(238,225,217)" stroke-opacity="1" stroke-width="0.921" d=" M0.0010000000474974513,11.055000305175781 C-13.432000160217285,11.055000305175781 -24.320999145507812,6.105999946594238 -24.320999145507812,-0.0010000000474974513 C-24.320999145507812,-6.105999946594238 -13.432000160217285,-11.055000305175781 0.0010000000474974513,-11.055000305175781 C13.432999610900879,-11.055000305175781 24.32200050354004,-6.105999946594238 24.32200050354004,-0.0010000000474974513 C24.32200050354004,6.105999946594238 13.432999610900879,11.055000305175781 0.0010000000474974513,11.055000305175781z"></path></g><g opacity="1" transform="matrix(1,0,0,1,625.8140258789062,179.52999877929688)"><path fill="rgb(17,100,234)" fill-opacity="1" d=" M0.0010000000474974513,11.055000305175781 C-13.432000160217285,11.055000305175781 -24.320999145507812,6.105999946594238 -24.320999145507812,0 C-24.320999145507812,-6.105999946594238 -13.432000160217285,-11.055000305175781 0.0010000000474974513,-11.055000305175781 C13.432999610900879,-11.055000305175781 24.32200050354004,-6.105999946594238 24.32200050354004,0 C24.32200050354004,6.105999946594238 13.432999610900879,11.055000305175781 0.0010000000474974513,11.055000305175781z"></path></g><g opacity="1" transform="matrix(1,0,0,1,625.7990112304688,152.00399780273438)"><path fill="rgb(17,100,234)" fill-opacity="1" d=" M24.32200050354004,28.006999969482422 C24.32200050354004,28.006999969482422 -24.320999145507812,28.006999969482422 -24.320999145507812,28.006999969482422 C-24.320999145507812,28.006999969482422 -24.320999145507812,-28.006999969482422 -24.320999145507812,-28.006999969482422 C-24.320999145507812,-28.006999969482422 24.32200050354004,-28.006999969482422 24.32200050354004,-28.006999969482422 C24.32200050354004,-28.006999969482422 24.32200050354004,28.006999969482422 24.32200050354004,28.006999969482422z"></path></g><g opacity="1" transform="matrix(1,0,0,1,625.8140258789062,124.52999877929688)"><path fill="rgb(13,60,136)" fill-opacity="1" d=" M0.0010000000474974513,11.055000305175781 C-13.432000160217285,11.055000305175781 -24.320999145507812,6.105999946594238 -24.320999145507812,0 C-24.320999145507812,-6.105999946594238 -13.432000160217285,-11.055000305175781 0.0010000000474974513,-11.055000305175781 C13.432999610900879,-11.055000305175781 24.32200050354004,-6.105999946594238 24.32200050354004,0 C24.32200050354004,6.105999946594238 13.432999610900879,11.055000305175781 0.0010000000474974513,11.055000305175781z"></path></g><g opacity="1" transform="matrix(1,0,0,1,650.5969848632812,90.58100128173828)"><path fill="rgb(247,147,30)" fill-opacity="1" d=" M-0.09200000017881393,-19.024999618530273 C-10.501999855041504,-19.024999618530273 -18.88599967956543,-10.732999801635742 -19.06999969482422,-0.32199999690055847 C-19.06999969482422,-0.32199999690055847 -0.36800000071525574,-0.32199999690055847 -0.36800000071525574,-0.32199999690055847 C-0.36800000071525574,-0.32199999690055847 -0.36800000071525574,19.024999618530273 -0.36800000071525574,19.024999618530273 C-0.36800000071525574,19.024999618530273 0,19.024999618530273 0,19.024999618530273 C10.503000259399414,19.024999618530273 19.06999969482422,10.54800033569336 19.06999969482422,-0.04600000008940697 C18.885000228881836,-10.548999786376953 10.41100025177002,-19.024999618530273 -0.09200000017881393,-19.024999618530273z"></path></g><g opacity="1" transform="matrix(1,0,0,1,650.9650268554688,81.5530014038086)"><path fill="rgb(251,176,59)" fill-opacity="1" d=" M7.001999855041504,-5.204999923706055 C7.001999855041504,-5.204999923706055 3.502000093460083,0.9670000076293945 3.502000093460083,0.9670000076293945 C3.502000093460083,0.9670000076293945 0,7.139999866485596 0,7.139999866485596 C0,7.139999866485596 -3.5,0.9670000076293945 -3.5,0.9670000076293945 C-3.5,0.9670000076293945 -7.001999855041504,-5.204999923706055 -7.001999855041504,-5.204999923706055 C-2.3959999084472656,-7.139999866485596 2.3959999084472656,-6.955999851226807 7.001999855041504,-5.204999923706055z"></path></g><g opacity="1" transform="matrix(1,0,0,1,660.5460205078125,82.88800048828125)"><path fill="rgb(251,176,59)" fill-opacity="1" d=" M7.093999862670898,5.619999885559082 C7.093999862670898,5.619999885559082 -0.0010000000474974513,5.988999843597412 -0.0010000000474974513,5.988999843597412 C-0.0010000000474974513,5.988999843597412 -7.093999862670898,6.35699987411499 -7.093999862670898,6.35699987411499 C-7.093999862670898,6.35699987411499 -3.869999885559082,0.0010000000474974513 -3.869999885559082,0.0010000000474974513 C-3.869999885559082,0.0010000000474974513 -0.6460000276565552,-6.35699987411499 -0.6460000276565552,-6.35699987411499 C3.5920000076293945,-3.2239999771118164 5.988999843597412,0.8299999833106995 7.093999862670898,5.619999885559082z"></path></g><g opacity="1" transform="matrix(1,0,0,1,641.5679931640625,83.16500091552734)"><path fill="rgb(251,176,59)" fill-opacity="1" d=" M-0.6449999809265137,-6.35699987411499 C-0.6449999809265137,-6.35699987411499 3.2239999771118164,-0.36899998784065247 3.2239999771118164,-0.36899998784065247 C3.2239999771118164,-0.36899998784065247 7.093999862670898,5.619999885559082 7.093999862670898,5.619999885559082 C7.093999862670898,5.619999885559082 0,5.988999843597412 0,5.988999843597412 C0,5.988999843597412 -7.093999862670898,6.35699987411499 -7.093999862670898,6.35699987411499 C-6.632999897003174,1.1059999465942383 -4.23799991607666,-3.0399999618530273 -0.6449999809265137,-6.35699987411499z"></path></g><g opacity="1" transform="matrix(1,0,0,1,661.0070190429688,97.16799926757812)"><path fill="rgb(251,176,59)" fill-opacity="1" d=" M0.460999995470047,6.263999938964844 C0.460999995470047,6.263999938964844 -3.315999984741211,0.2770000100135803 -3.315999984741211,0.2770000100135803 C-3.315999984741211,0.2770000100135803 -7.093999862670898,-5.711999893188477 -7.093999862670898,-5.711999893188477 C-7.093999862670898,-5.711999893188477 0,-5.98799991607666 0,-5.98799991607666 C0,-5.98799991607666 7.093999862670898,-6.263999938964844 7.093999862670898,-6.263999938964844 C6.540999889373779,-1.1050000190734863 4.145999908447266,3.0390000343322754 0.460999995470047,6.263999938964844z"></path></g><g opacity="1" transform="matrix(1,0,0,1,648.5709838867188,140.28399658203125)"><path fill="rgb(238,225,217)" fill-opacity="1" d=" M-2.302999973297119,-22.111000061035156 C-2.302999973297119,-22.111000061035156 -10.319000244140625,-18.517000198364258 -10.041999816894531,-13.817999839782715 C-9.949999809265137,-12.713000297546387 -9.765999794006348,-11.607000350952148 -9.305000305175781,-10.593000411987305 C-10.779000282287598,-8.935999870300293 -11.607999801635742,-6.816999912261963 -11.607999801635742,-4.421000003814697 C-11.607999801635742,-2.0260000228881836 -10.687000274658203,0.18400000035762787 -9.213000297546387,1.8420000076293945 C-10.687000274658203,3.500999927520752 -11.607999801635742,5.711999893188477 -11.607999801635742,8.107000350952148 C-11.607999801635742,10.501999855041504 -10.687000274658203,12.713000297546387 -9.213000297546387,14.371999740600586 C-9.765999794006348,15.569000244140625 -10.133999824523926,17.04400062561035 -10.133999824523926,18.51799964904785 C-10.133999824523926,23.584999084472656 -6.264999866485596,26.534000396728516 -1.7510000467300415,27.823999404907227 C-1.7510000467300415,27.823999404907227 -1.7510000467300415,27.915000915527344 -1.7510000467300415,27.915000915527344 C-1.7510000467300415,27.915000915527344 -1.659000039100647,27.915000915527344 -1.659000039100647,27.915000915527344 C-1.659000039100647,27.915000915527344 -1.565999984741211,27.915000915527344 -1.565999984741211,27.915000915527344 C-0.36899998784065247,28.28499984741211 0.7369999885559082,28.466999053955078 1.6579999923706055,28.466999053955078 C2.7639999389648438,28.650999069213867 3.86899995803833,28.559999465942383 5.066999912261963,27.823999404907227 C5.98799991607666,27.36400032043457 6.632999897003174,26.625999450683594 7.000999927520752,25.70400047302246 C8.935999870300293,22.572999954223633 10.501999855041504,16.30699920654297 10.779000282287598,3.9619998931884766 C11.607999801635742,-28.650999069213867 -2.302999973297119,-22.111000061035156 -2.302999973297119,-22.111000061035156z"></path></g></g><g transform="matrix(0.9928069710731506,0.11972587555646896,-0.11972587555646896,0.9928069710731506,41.687747955322266,-113.01998901367188)" opacity="1" style="display: block;"><g opacity="1" transform="matrix(0.8407005667686462,0.5415002703666687,-0.5415002703666687,0.8407005667686462,615.95947265625,89.49036407470703)"><path fill="rgb(161,85,31)" fill-opacity="1" d=" M21.327999114990234,37.5890007019043 C21.327999114990234,37.5890007019043 17.45800018310547,37.49700164794922 17.45800018310547,37.49700164794922 C17.45800018310547,37.49700164794922 -21.327999114990234,-35.560001373291016 -21.327999114990234,-35.560001373291016 C-21.327999114990234,-35.560001373291016 -17.365999221801758,-37.5890007019043 -17.365999221801758,-37.5890007019043 C-17.365999221801758,-37.5890007019043 21.327999114990234,37.5890007019043 21.327999114990234,37.5890007019043z"></path></g></g></g><g transform="matrix(1,0,0,1,9.05999755859375,-27.133010864257812)" opacity="1" style="display: block;"><g opacity="1" transform="matrix(1,0,0,1,341.78399658203125,319.51800537109375)"><path fill="rgb(13,60,136)" fill-opacity="1" d=" M85.6780014038086,-15.984000205993652 C85.6780014038086,-15.984000205993652 145.1929931640625,59.744998931884766 134.41400146484375,80.1969985961914 C117.55500030517578,112.16500091552734 -35.00899887084961,180.98500061035156 -59.79100036621094,126.35299682617188 C-97.65499877929688,83.9749984741211 -145.1929931640625,-169.6529998779297 -36.75899887084961,-179.51100158691406 C-23.768999099731445,-180.70899963378906 -0.9210000038146973,-180.98500061035156 6.448999881744385,-172.6009979248047 C57.21099853515625,-114.65299987792969 85.6780014038086,-15.984000205993652 85.6780014038086,-15.984000205993652z"></path></g></g><g transform="matrix(1,0,0,1,9.05999755859375,-27.133010864257812)" opacity="1" style="display: block;"><g opacity="1" transform="matrix(1,0,0,1,298.66900634765625,109.19100189208984)"><path fill="rgb(238,225,217)" fill-opacity="1" d=" M32.42900085449219,30.909000396728516 C32.15299987792969,29.711999893188477 12.89799976348877,4.559999942779541 30.863000869750977,-3.361999988555908 C37.220001220703125,-5.757999897003174 41.45800018310547,-8.430000305175781 41.82600021362305,-12.484000205993652 C43.94499969482422,-34.04100036621094 30.679000854492188,-36.7130012512207 27.731000900268555,-47.58399963378906 C24.597999572753906,-59.19200134277344 12.529999732971191,-57.44200134277344 1.1059999465942383,-56.70399856567383 C-17.503999710083008,-55.50699996948242 -48.91999816894531,-32.198001861572266 -24.690000534057617,-0.5989999771118164 C-19.71500015258789,5.849999904632568 -10.779000282287598,9.442999839782715 -0.5529999732971191,23.17099952697754 C2.0269999504089355,26.57900047302246 2.8559999465942383,28.604999542236328 4.698999881744385,35.05500030517578 C11.793000221252441,59.19200134277344 48.91999816894531,48.32099914550781 32.42900085449219,30.909000396728516z"></path></g><g opacity="1" transform="matrix(1,0,0,1,257.2919921875,251.9340057373047)"><path fill="rgb(238,225,217)" fill-opacity="1" d=" M-23.23200035095215,-59.98099899291992 C-41.7760009765625,-21.89699935913086 -89.11599731445312,86.84100341796875 -91.18900299072266,89.84600067138672 C-94.68900299072266,94.91899871826172 -96.70999908447266,100.88400268554688 -96.70999908447266,107.27200317382812 C-96.70999908447266,125.72599792480469 -84.03600311279297,139.1020050048828 -63.27299880981445,139.1020050048828 C-51.132999420166016,139.1020050048828 -40.34400177001953,133.98300170898438 -33.47100067138672,126.0469970703125 C1.7209999561309814,91.02400207519531 31.857999801635742,57.185001373291016 41.904998779296875,36.840999603271484 C42.8849983215332,34.856998443603516 44.00299835205078,32.9379997253418 45.18000030517578,31.062999725341797 C96.70899963378906,-51.06100082397461 15.237000465393066,-139.1020050048828 -23.23200035095215,-59.98099899291992z"></path></g><g opacity="1" transform="matrix(1,0,0,1,118.99600219726562,421.2130126953125)"><path fill="rgb(238,225,217)" fill-opacity="1" d=" M82.50499725341797,-105.95800018310547 C69.57099914550781,-105.95800018310547 58.22700119018555,-99.1780014038086 51.8129997253418,-88.98300170898438 C51.76499938964844,-89.00700378417969 51.7130012512207,-89.03199768066406 51.66600036621094,-89.05599975585938 C21.73699951171875,-31.555999755859375 -10.748000144958496,19.44499969482422 -41.54800033569336,33.6609992980957 C-42.82699966430664,34.25199890136719 -44.15700149536133,34.70199966430664 -45.51599884033203,35.0260009765625 C-46.22200012207031,35.29199981689453 -46.926998138427734,35.55699920654297 -47.630001068115234,35.78099822998047 C-53.63399887084961,35.53799819946289 -62.27899932861328,35.19300079345703 -71.19100189208984,35.17499923706055 C-89.02100372314453,35.16999816894531 -107.68000030517578,36.50899887084961 -108.22699737548828,42.5989990234375 C-108.50399780273438,45.821998596191406 -69.44200134277344,43.97999954223633 -82.33999633789062,48.95600128173828 C-95.3290023803711,54.02199935913086 -115.5989990234375,57.6150016784668 -115.0459976196289,60.84000015258789 C-114.77200317382812,62.47999954223633 -111.64800262451172,62.99700164794922 -107.4729995727539,62.99700164794922 C-100.08999633789062,62.904998779296875 -89.8550033569336,61.367000579833984 -85.85399627685547,61.44599914550781 C-84.02899932861328,61.415000915527344 -83.09100341796875,61.606998443603516 -83.62999725341797,62.22200012207031 C-82.06400299072266,64.802001953125 -117.3489990234375,67.10399627685547 -118.36299896240234,72.54000091552734 C-118.74700164794922,74.62300109863281 -114.34500122070312,75.17900085449219 -108.40799713134766,75.19599914550781 C-102.02999877929688,75.1729965209961 -94.08100128173828,74.59400177001953 -88.36499786376953,74.61599731445312 C-83.7770004272461,74.5989990234375 -80.45800018310547,74.91999816894531 -80.22100067138672,76.13300323486328 C-79.76000213623047,78.71299743652344 -108.96600341796875,82.02899932861328 -108.04399871826172,85.34600067138672 C-107.60600280761719,86.86499786376953 -104.25900268554688,87.5469970703125 -99.1760025024414,87.58399963378906 C-88.13700103759766,87.54499816894531 -69.55599975585938,84.65499877929688 -54.263999938964844,80.64700317382812 C-50.290000915527344,82.47599792480469 -68.1760025024414,97.73600006103516 -70.44300079345703,103.78600311279297 C-70.27799987792969,104.2770004272461 -70.11499786376953,104.7699966430664 -69.9749984741211,105.27300262451172 C-69.90599822998047,105.5250015258789 -69.76200103759766,105.73200225830078 -69.53500366210938,105.89099884033203 C-69.46600341796875,105.92500305175781 -69.38300323486328,105.93900299072266 -69.3030014038086,105.95800018310547 C-63.15700149536133,104.96800231933594 -40.35200119018555,79.4489974975586 -40.35200119018555,79.4489974975586 C-30.566999435424805,79.4489974975586 52.319000244140625,9.630999565124512 115.87799835205078,-54.28900146484375 C117.74500274658203,-58.970001220703125 118.74700164794922,-64.1969985961914 118.74700164794922,-69.71600341796875 C118.74700164794922,-89.73100280761719 102.52100372314453,-105.95800018310547 82.50499725341797,-105.95800018310547z"></path></g></g><g clip-path="url(#__lottie_element_18)" transform="matrix(1,0,0,1,0,0)" opacity="1" style="display: block;"><g transform="matrix(1,0,0,1,9.05999755859375,-27.133010864257812)" opacity="1" style="display: block;"><g opacity="1" transform="matrix(1,0,0,1,298.66900634765625,109.19100189208984)"><path fill="rgb(238,225,217)" fill-opacity="1" d=" M32.42900085449219,30.909000396728516 C32.15299987792969,29.711999893188477 12.89799976348877,4.559999942779541 30.863000869750977,-3.361999988555908 C37.220001220703125,-5.757999897003174 41.45800018310547,-8.430000305175781 41.82600021362305,-12.484000205993652 C43.94499969482422,-34.04100036621094 30.679000854492188,-36.7130012512207 27.731000900268555,-47.58399963378906 C24.597999572753906,-59.19200134277344 12.529999732971191,-57.44200134277344 1.1059999465942383,-56.70399856567383 C-17.503999710083008,-55.50699996948242 -48.91999816894531,-32.198001861572266 -24.690000534057617,-0.5989999771118164 C-19.71500015258789,5.849999904632568 -10.779000282287598,9.442999839782715 -0.5529999732971191,23.17099952697754 C2.0269999504089355,26.57900047302246 2.8559999465942383,28.604999542236328 4.698999881744385,35.05500030517578 C11.793000221252441,59.19200134277344 48.91999816894531,48.32099914550781 32.42900085449219,30.909000396728516z"></path></g></g><g transform="matrix(1,0,0,1,9.05999755859375,-27.133010864257812)" opacity="1" style="display: block;"><g opacity="1" transform="matrix(1,0,0,1,287.4750061035156,106.60199737548828)"><path fill="rgb(161,85,31)" fill-opacity="1" d=" M30.079999923706055,-46.46900177001953 C25.56599998474121,-39.0989990234375 -5.664999961853027,-52.917999267578125 -0.32199999690055847,-20.489999771118164 C0.04600000008940697,-18.000999450683594 2.994999885559082,-10.170999526977539 -8.982000350952148,-10.447999954223633 C-20.867000579833984,-10.723999977111816 -12.944000244140625,4.754000186920166 -5.11299991607666,-1.1419999599456787 C2.809999942779541,-7.038000106811523 16.81399917602539,24.100000381469727 28.697999954223633,42.064998626708984 C24,62.24100112915039 -41.595001220703125,79.46900177001953 -61.40299987792969,42.064998626708984 C-43.7140007019043,8.89900016784668 -34.869998931884766,-21.77899932861328 -34.31700134277344,-42.875999450683594 C-21.14299964904785,-106.35199737548828 61.40299987792969,-73.55500030517578 30.079999923706055,-46.46900177001953z"></path></g></g></g></g><g transform="matrix(1,0,0,1,9.05999755859375,-27.133010864257812)" opacity="1" style="display: block;"><g opacity="1" transform="matrix(1,0,0,1,634.10498046875,454.2550048828125)"><path fill="rgb(238,225,217)" fill-opacity="1" d=" M286.14898681640625,6.449999809265137 C286.14898681640625,5.5279998779296875 -216.13099670410156,-81.3479995727539 -216.13099670410156,-81.3479995727539 C-300.2430114746094,-89.08699798583984 -359.4809875488281,-67.43699645996094 -359.6650085449219,-21.003999710083008 C-337.9230041503906,35.007999420166016 -315.1679992675781,78.86199951171875 -215.3939971923828,79.96600341796875 C-215.3939971923828,79.96600341796875 272.0539855957031,60.52799987792969 272.0539855957031,60.52799987792969 C271.9620056152344,60.62099838256836 271.8689880371094,60.62099838256836 271.8689880371094,60.71200180053711 C287.71600341796875,64.95099639892578 299.50799560546875,-0.9210000038146973 286.14898681640625,6.449999809265137z"></path></g></g><g transform="matrix(0.9999997615814209,0.0006981316255405545,-0.0006981316255405545,0.9999997615814209,9.39813232421875,-27.773834228515625)" opacity="1" style="display: block;"><g opacity="1" transform="matrix(1,0,0,1,634.10498046875,454.2550048828125)"><path fill="rgb(238,225,217)" fill-opacity="1" d=" M339.3070068359375,-74.89900207519531 C318.9469909667969,-35.83700180053711 299.50799560546875,-0.9210000038146973 286.14898681640625,6.449999809265137 C286.14898681640625,6.011000156402588 267.9540100097656,17.74799919128418 264.6059875488281,30.690000534057617 C260.9219970703125,44.93199920654297 272.0539855957031,60.52799987792969 272.0539855957031,60.52799987792969 C271.9620056152344,60.62099838256836 271.8689880371094,60.62099838256836 271.8689880371094,60.71200180053711 C287.71600341796875,64.95099639892578 305.9570007324219,83.00700378417969 316.1830139160156,86.0469970703125 C326.40899658203125,89.08699798583984 355.52099609375,-15.47700023651123 357.4540100097656,-70.47699737548828 C359.6650085449219,-78.9540023803711 345.6629943847656,-84.66600036621094 339.3070068359375,-74.89900207519531z"></path></g><g opacity="1" transform="matrix(1,0,0,1,955.4920043945312,447.8059997558594)"><path fill="rgb(13,60,136)" fill-opacity="1" d=" M4.192999839782715,-45.141998291015625 C2.257999897003174,-37.49599838256836 0.5059999823570251,-29.849000930786133 -0.8740000128746033,-22.202999114990234 C-2.1640000343322754,-14.555000305175781 -2.99399995803833,-6.908999919891357 -3.177999973297119,0.8299999833106995 C-3.2709999084472656,8.47700023651123 -2.7170000076293945,16.214000701904297 -1.1519999504089355,23.770000457763672 C-0.7829999923706055,25.61199951171875 -0.3230000138282776,27.54599952697754 0.1379999965429306,29.389999389648438 C0.6909999847412109,31.139999389648438 1.5199999809265137,32.88999938964844 2.3489999771118164,34.64099884033203 C4.098999977111816,38.141998291015625 5.941999912261963,41.54999923706055 7.599999904632568,45.143001556396484 C5.388999938964844,41.91899871826172 2.994999885559082,38.7869987487793 0.8759999871253967,35.37799835205078 C-0.13699999451637268,33.720001220703125 -1.24399995803833,32.06100082397461 -2.072999954223633,30.12700080871582 C-2.809999942779541,28.284000396728516 -3.5460000038146973,26.44099998474121 -4.191999912261963,24.506000518798828 C-6.585999965667725,16.860000610351562 -7.60099983215332,8.753000259399414 -7.507999897003174,0.8299999833106995 C-7.414999961853027,-7.184999942779541 -6.310999870300293,-15.107999801635742 -4.375,-22.847000122070312 C-2.25600004196167,-30.67799949645996 0.5070000290870667,-38.13999938964844 4.192999839782715,-45.141998291015625z"></path></g><g opacity="1" transform="matrix(1,0,0,1,972.9970092773438,460.7489929199219)"><path fill="rgb(13,60,136)" fill-opacity="1" d=" M23.261999130249023,-74.11599731445312 C4.927999973297119,11.378999710083008 -8.246000289916992,64.62699890136719 -19.208999633789062,81.20999908447266 C-19.208999633789062,81.20999908447266 -23.261999130249023,80.01399993896484 -23.261999130249023,80.01399993896484 C-23.261999130249023,80.01399993896484 19.113000869750977,-81.20999908447266 19.113000869750977,-81.20999908447266 C19.113000869750977,-81.20999908447266 23.261999130249023,-74.11599731445312 23.261999130249023,-74.11599731445312z"></path></g></g></g></g></svg>