<svg class="w-1/2 md:w-4/12 absolute top-0 right-0 mt-[35vw] mr-[4vw] md:mr-0 md:mt-[17.5vw] 2xl:mt-[19%] z-0" viewBox="0 0 447 258" fill="none" xmlns="http://www.w3.org/2000/svg"><g opacity=".447"><mask id="mask-a" maskUnits="userSpaceOnUse" x="0" y="0" width="447" height="258"><path fill-rule="evenodd" clip-rule="evenodd" d="M0 0h447v258H0V0z" fill="#fff"></path></mask><g mask="url(#mask-a)"><path fill-rule="evenodd" clip-rule="evenodd" d="M53.828 230.687c-10.89-6.159-20.862-14.418-28.037-24.655-7.078-10.098-11.515-22.131-12.372-34.027a73.814 73.814 0 01-.172-5.233c9.767 16.713 23.923 31.084 39.348 42.517 24.188 17.925 53.103 29.06 82.627 34.699 3.62.69 7.25 1.3 10.891 1.849-1.72.121-3.441.232-5.166.321-29.476 1.522-60.958-.681-87.12-15.471zm-38.8-130.357c8.148-23.03 29.039-40.3 50.082-52.253 26.129-14.84 55.343-24.157 84.81-29.832 30.327-5.84 61.61-8.004 92.464-6.43 28.104 1.435 56.265 6.358 82.558 16.506 18.94 7.308 39.338 18.807 49.708 36.502 2.744 4.677 4.25 8.368 5.542 13.817 1.383 5.82 1.63 11.91.998 18.431-1.378 14.208-7.725 27.581-15.776 39.23-15.112 21.862-35.783 39.678-58.002 54.179-23.274 15.193-48.672 27.354-74.877 36.695-11.839 4.219-23.909 7.839-36.142 10.782-2.137.004-4.274.027-6.412-.003-31.201-.445-62.576-4.828-91.691-16.335-25.07-9.908-48.21-25.476-65.286-46.312-7.17-8.746-13.125-18.779-16.934-29.416 3.937-14.63 11.717-28.368 21.676-39.878 17.88-20.659 42.67-33.85 68.918-41.476 30.031-8.724 61.589-10.138 92.695-8.841 16.243.678 32.443 2.126 48.609 3.817 3.082.323 5.725-2.836 5.725-5.672 0-3.334-2.636-5.348-5.725-5.671-34.274-3.582-68.954-6.115-103.336-2.416-30.385 3.269-60.75 11.556-86.644 28.061-19.82 12.636-36.243 30.36-46.323 51.436-.536-8.297.453-16.694 3.363-24.921zm431.207 63.482c-1.465-2.48-5.29-3.8-7.835-2.034a429.465 429.465 0 01-77.083 42.449c-26.732 11.329-54.754 19.834-83.242 25.549a423.547 423.547 0 01-34.641 5.446 404.608 404.608 0 0033.575-14.547c25.653-12.51 50.162-27.985 71.071-47.409 21.628-20.095 41.423-45.688 44.52-75.785 1.307-12.71-1.046-25.588-7.191-36.847-5.545-10.158-13.889-18.415-23.165-25.264-19.627-14.492-44.136-22.736-67.791-28.016C262.398.201 229.157-1.277 196.445.967c-31.951 2.19-63.885 7.67-94.157 18.2C74.9 28.695 47.45 41.937 26.751 62.543 17.217 72.03 9.38 83.129 4.585 95.687c-5.194 13.611-5.805 28.477-2.692 42.638.61 2.789 1.395 5.52 2.26 8.22-5.062 22.418-1.606 46.334 11.959 65.51 17.163 24.263 45.16 37.95 74.085 42.916 32.283 5.541 66.037 2.964 97.969-3.56 3.065-.625 6.115-1.329 9.159-2.039 11.665-.057 23.323-.637 34.901-1.649 30.533-2.667 60.794-8.471 90.096-17.384 29.268-8.904 57.66-20.834 84.426-35.562a427.403 427.403 0 0037.434-23.205c2.528-1.754 3.704-4.962 2.053-7.76z" fill="#01295F"></path></g></g></svg>