<svg xmlns="http://www.w3.org/2000/svg" viewBox="0 0 741 260" width="741" height="260" preserveAspectRatio="xMidYMid slice" style="width: 100%; height: 100%; transform: translate3d(0px, 0px, 0px);"><defs><clipPath id="__lottie_element_54"><rect width="741" height="260" x="0" y="0"></rect></clipPath><clipPath id="__lottie_element_56"><path d="M0,0 L741,0 L741,500 L0,500z"></path></clipPath><clipPath id="__lottie_element_63"><path d="M0,0 L1200,0 L1200,700 L0,700z"></path></clipPath><clipPath id="__lottie_element_70"><path d="M0,0 L1200,0 L1200,700 L0,700z"></path></clipPath><clipPath id="__lottie_element_80"><path d="M0,0 L1200,0 L1200,700 L0,700z"></path></clipPath><clipPath id="__lottie_element_87"><path d="M0,0 L1200,0 L1200,700 L0,700z"></path></clipPath><clipPath id="__lottie_element_91"><path d="M0,0 L1200,0 L1200,700 L0,700z"></path></clipPath><clipPath id="__lottie_element_104"><path d="M0,0 L1200,0 L1200,700 L0,700z"></path></clipPath><clipPath id="__lottie_element_114"><path d="M0,0 L1200,0 L1200,700 L0,700z"></path></clipPath><clipPath id="__lottie_element_127"><path d="M0,0 L1200,0 L1200,700 L0,700z"></path></clipPath></defs><g clip-path="url(#__lottie_element_54)"><g clip-path="url(#__lottie_element_56)" transform="matrix(1,0,0,1,0,-109)" opacity="1" style="display: block;"><g clip-path="url(#__lottie_element_63)" transform="matrix(0.9996479153633118,0.026534754782915115,-0.026534754782915115,0.9996479153633118,-219.5015869140625,-109.7950439453125)" opacity="1" style="display: block;"><g transform="matrix(1,0,0,1,154.35299682617188,219.29998779296875)" opacity="1" style="display: block;"><g opacity="1" transform="matrix(1,0,0,1,603.531005859375,192.10899353027344)"><path fill="rgb(230,230,230)" fill-opacity="1" d=" M140.1739959716797,2.003999948501587 C140.1739959716797,13.168999671936035 134.54600524902344,23.298999786376953 125.4520034790039,30.68199920654297 C116.35900115966797,38.020999908447266 103.84200286865234,42.612998962402344 90.06500244140625,42.612998962402344 C90.06500244140625,42.612998962402344 -104.33799743652344,42.612998962402344 -104.33799743652344,42.612998962402344 C-131.89100646972656,42.612998962402344 -154.44700622558594,24.333999633789062 -154.44700622558594,2.003999948501587 C-154.44700622558594,-6.776000022888184 -150.93499755859375,-14.970000267028809 -144.99200439453125,-21.632999420166016 C-143.5970001220703,-23.208999633789062 -159.03799438476562,-21.00200080871582 -157.3719940185547,-22.398000717163086 C-148.72799682617188,-29.691999435424805 -119.77999877929688,-38.066001892089844 -106.4990005493164,-38.56100082397461 C-105.23799896240234,-38.60599899291992 -103.97799682617188,-38.56100082397461 -102.71700286865234,-38.47100067138672 C-92.0469970703125,-37.525001525878906 -29.37700080871582,-42.612998962402344 -7.2270002365112305,-42.612998962402344 C14.519000053405762,-42.612998962402344 75.11799621582031,-37.29999923706055 87.76899719238281,-38.38100051879883 C89.66000366210938,-38.56100082397461 91.5510025024414,-38.60599899291992 93.44200134277344,-38.47100067138672 C107.98400115966797,-37.65999984741211 143.77699279785156,-30.77199935913086 152.28500366210938,-21.993000030517578 C159.03799438476562,-15.104999542236328 140.1739959716797,-7.451000213623047 140.1739959716797,2.003999948501587z"></path></g></g><g clip-path="url(#__lottie_element_127)" transform="matrix(1,0,0,1,0,0)" opacity="1" style="display: block;"><g transform="matrix(1,0,0,1,154.35302734375,219.29998779296875)" opacity="1" style="display: block;"><g opacity="1" transform="matrix(1,0,0,1,490.2799987792969,107.98600006103516)"><path fill="rgb(185,137,132)" fill-opacity="1" d=" M101.34300231933594,74.69100189208984 C101.34300231933594,74.69100189208984 96.93000030517578,72.79900360107422 64.06500244140625,70.45899963378906 C25.481000900268555,67.71199798583984 0.4490000009536743,24.98699951171875 0.5389999747276306,11.4350004196167 C0.5809999704360962,0.9599999785423279 -6.078999996185303,-32.64099884033203 13.956000328063965,-20.124000549316406 C15.803000450134277,-18.954999923706055 17.37700080871582,-17.96299934387207 18.54800033569336,-17.198999404907227 C32.595001220703125,-7.74399995803833 101.34300231933594,74.69100189208984 101.34300231933594,74.69100189208984z"></path></g></g><g transform="matrix(0.970247209072113,-0.24211637675762177,0.24211637675762177,0.970247209072113,143.04019165039062,342.0809631347656)" opacity="1" style="display: block;"><g opacity="1" transform="matrix(1,0,0,1,490.2799987792969,107.98600006103516)"><path fill="rgb(185,137,132)" fill-opacity="1" d=" M-0.38499999046325684,4.03000020980835 C-7.383999824523926,0.7129999995231628 -19.540000915527344,-8.553999900817871 -25.753000259399414,-14.902999877929688 C-39.88999938964844,-29.30900001525879 -60.33000183105469,-52.36000061035156 -61.861000061035156,-53.71099853515625 C-64.02200317382812,-55.60200119018555 -68.92900085449219,-52.9010009765625 -73.79100036621094,-53.16999816894531 C-78.65399932861328,-53.441001892089844 -81.4000015258789,-56.68199920654297 -82.61399841308594,-59.428001403808594 C-83.83100128173828,-62.130001068115234 -86.12699890136719,-61.45500183105469 -93.73600006103516,-63.75 C-101.34300231933594,-66.0459976196289 -100.21800231933594,-69.4229965209961 -100.21800231933594,-69.4229965209961 C-85.18199920654297,-74.69100189208984 -60.64500045776367,-63.88600158691406 -60.64500045776367,-63.88600158691406 C-60.64500045776367,-63.88600158691406 -6.078999996185303,-32.64099884033203 13.956000328063965,-20.124000549316406 C15.803000450134277,-18.954999923706055 17.37700080871582,-17.96299934387207 18.54800033569336,-17.198999404907227 C32.595001220703125,-7.74399995803833 8.079000473022461,9.522000312805176 -0.38499999046325684,4.03000020980835z"></path></g></g></g><g clip-path="url(#__lottie_element_80)" transform="matrix(1,0,0,1,0,0)" opacity="1" style="display: block;"><g clip-path="url(#__lottie_element_114)" transform="matrix(0.9975228309631348,0.07034383714199066,-0.07034383714199066,0.9975228309631348,25.64947509765625,-56.357208251953125)" opacity="1" style="display: block;"><g transform="matrix(1,0,0,1,154.35299682617188,219.29998779296875)" opacity="1" style="display: block;"><g opacity="1" transform="matrix(1,0,0,1,657.7589721679688,106.61399841308594)"><path fill="rgb(238,225,217)" fill-opacity="1" d=" M-9.949999809265137,15.6899995803833 C-10.039999961853027,14.923999786376953 1.440999984741211,12.404000282287598 -6.663000106811523,1.3730000257492065 C-7.923999786376953,-0.3370000123977661 -11.569999694824219,-2.0929999351501465 -12.156000137329102,-3.4000000953674316 C-13.866999626159668,-7.091000080108643 -12.020999908447266,-14.970000267028809 -12.425999641418457,-19.246999740600586 C-13.595999717712402,-22.26300048828125 -8.23900032043457,-20.552000045776367 -4.23199987411499,-21.49799919128418 C2.385999917984009,-23.073999404907227 13.866999626159668,-19.066999435424805 9.949999809265137,-4.434000015258789 C9.003999710083008,-0.9229999780654907 6.123000144958496,9.970999717712402 6.3480000495910645,19.92099952697754 C6.39300012588501,23.073999404907227 -2.071000099182129,20.10099983215332 -4.816999912261963,20.10099983215332 C-8.329000473022461,20.145999908447266 -11.119999885559082,18.211000442504883 -9.949999809265137,15.6899995803833z"></path></g></g><g transform="matrix(1,0,0,1,154.35299682617188,219.29998779296875)" opacity="1" style="display: block;"><g opacity="1" transform="matrix(1,0,0,1,657.4219970703125,83.24600219726562)"><path fill="rgb(161,85,31)" fill-opacity="1" d=" M-11.277000427246094,4.885000228881836 C-11.277000427246094,4.885000228881836 -20.238000869750977,1.5989999771118164 -16.09600067138672,-6.864999771118164 C-9.116999626159668,-21.04800033569336 2.813999891281128,-6.234000205993652 6.955999851226807,-7.764999866485596 C11.142999649047852,-9.25100040435791 20.23699951171875,-5.513000011444092 19.742000579833984,2.319999933242798 C19.246000289916992,10.109000205993652 13.12399959564209,12.989999771118164 13.890000343322754,16.23200035095215 C14.609999656677246,19.42799949645996 10.152000427246094,21.04800033569336 9.746999740600586,20.01300048828125 C9.612000465393066,19.608999252319336 10.107999801635742,18.437000274658203 9.657999992370605,16.81599998474121 C9.387999534606934,15.914999961853027 8.081999778747559,15.736000061035156 8.35200023651123,15.510000228881836 C10.963000297546387,13.348999977111816 9.477999687194824,7.992000102996826 6.776000022888184,10.513999938964844 C4.119999885559082,13.03499984741211 0.7889999747276306,11.144000053405762 0.06800000369548798,9.928999900817871 C-0.6970000267028809,8.668000221252441 0.06700000166893005,3.940999984741211 -3.625,4.435999870300293 C-7.361000061035156,4.886000156402588 -8.305999755859375,5.739999771118164 -11.277000427246094,4.885000228881836z"></path></g></g><g transform="matrix(1,0,0,1,154.35299682617188,219.29998779296875)" opacity="1" style="display: block;"><g opacity="1" transform="matrix(1,0,0,1,682.0269775390625,96.46099853515625)"><path fill="rgb(161,85,31)" fill-opacity="1" d=" M17.82900047302246,-4.052000045776367 C22.600000381469727,-13.642000198364258 16.972999572753906,-13.687000274658203 6.888000011444092,-11.65999984741211 C1.75600004196167,-10.625 -2.1610000133514404,-18.27899932861328 -2.1610000133514404,-18.27899932861328 C-2.5209999084472656,-21.070999145507812 -7.203000068664551,-26.472999572753906 -11.795000076293945,-26.246999740600586 C-14.767000198364258,-26.113000869750977 -20.260000228881836,-26.83300018310547 -24.62700080871582,-26.156999588012695 C-29.083999633789062,-25.482999801635742 -32.099998474121094,-21.070999145507812 -30.885000228881836,-16.74799919128418 C-30.118999481201172,-14.001999855041504 -28.003000259399414,-11.97599983215332 -23.051000595092773,-12.607000350952148 C-19.04400062561035,-13.147000312805176 -15.666999816894531,-12.607000350952148 -12.920999526977539,-11.704999923706055 C-17.648000717163086,-8.734999656677246 -20.934999465942383,-8.329000473022461 -20.799999237060547,-7.834000110626221 C-20.530000686645508,-6.797999858856201 -17.96299934387207,1.034999966621399 -22.375999450683594,7.203000068664551 C-26.697999954223633,13.236000061035156 -23.770999908447266,26.83300018310547 -7.789000034332275,18.097999572753906 C0.8560000061988831,13.371000289916992 21.34000015258789,14.946999549865723 25.391000747680664,8.779000282287598 C32.099998474121094,-1.3960000276565552 15.982999801635742,-0.3160000145435333 17.82900047302246,-4.052000045776367z"></path></g></g></g><g clip-path="url(#__lottie_element_87)" transform="matrix(1,0,0,1,0,0)" opacity="1" style="display: block;"><g clip-path="url(#__lottie_element_104)" transform="matrix(0.9989703893661499,-0.045367512851953506,0.045367512851953506,0.9989703893661499,-15.479736328125,37.934967041015625)" opacity="1" style="display: block;"><g transform="matrix(1,0,0,1,154.35302734375,219.29998779296875)" opacity="1" style="display: block;"><g opacity="1" transform="matrix(1,0,0,1,685.2230224609375,106.99600219726562)"><path fill="rgb(238,225,217)" fill-opacity="1" d=" M101.9739990234375,-48.75899887084961 C101.20800018310547,-47.40700149536133 96.70600128173828,-46.821998596191406 96.21099853515625,-44.481998443603516 C95.76100158691406,-42.14099884033203 95.3550033569336,-39.3489990234375 93.87000274658203,-37.007999420166016 C92.60900115966797,-35.027000427246094 90.76300048828125,-32.73099899291992 90.2229995727539,-32.055999755859375 C87.52200317382812,-25.302000045776367 71.58399963378906,13.326000213623047 56.4109992980957,28.04800033569336 C56.321998596191406,28.136999130249023 56.231998443603516,28.183000564575195 56.141998291015625,28.273000717163086 C52.45000076293945,36.2869987487793 35.071998596191406,13.461000442504883 42.5,9.409000396728516 C47.5880012512207,6.618000030517578 56.59199905395508,-2.8359999656677246 65.01100158691406,-12.425999641418457 C73.43000030517578,-22.06100082397461 81.21900177001953,-31.78499984741211 83.875,-35.1619987487793 C83.875,-35.1619987487793 85.08999633789062,-40.11399841308594 85.13500213623047,-44.750999450683594 C85.18099975585938,-49.388999938964844 95.76100158691406,-52.494998931884766 98.50700378417969,-51.95500183105469 C101.25299835205078,-51.459999084472656 102.73899841308594,-50.154998779296875 101.9739990234375,-48.75899887084961z"></path></g></g><g transform="matrix(1,0,0,1,154.35302734375,219.29998779296875)" opacity="1" style="display: block;"><g opacity="1" transform="matrix(1,0,0,1,685.2230224609375,106.99600219726562)"><path fill="rgb(238,225,217)" fill-opacity="1" d=" M56.4109992980957,28.04800033569336 C56.321998596191406,28.136999130249023 56.231998443603516,28.183000564575195 56.141998291015625,28.273000717163086 C52.45000076293945,36.2869987487793 18.909000396728516,49.073001861572266 3.1059999465942383,46.551998138427734 C1.9950000047683716,49.09400177001953 -15.541000366210938,41.95600128173828 -20.086999893188477,33.02199935913086 C-23.527000427246094,26.261999130249023 -14.401000022888184,17.325000762939453 -14.362000465393066,17.33300018310547 C-6.257999897003174,17.69300079345703 35.071998596191406,13.461000442504883 42.5,9.409000396728516 C47.5880012512207,6.618000030517578 71.58399963378906,13.326000213623047 56.4109992980957,28.04800033569336z"></path></g></g></g><g transform="matrix(1,0,0,1,154.35299682617188,219.29998779296875)" opacity="1" style="display: block;"><g opacity="1" transform="matrix(1,0,0,1,685.2230224609375,106.99600219726562)"><path fill="rgb(238,225,217)" fill-opacity="1" d=" M3.1059999465942383,46.551998138427734 C-0.18000000715255737,54.07099914550781 -5.4029998779296875,62.80400085449219 -11.300999641418457,71.17900085449219 C-23.231000900268555,88.06199645996094 -37.952999114990234,103.41400146484375 -45.20199966430664,104.36000061035156 C-60.23899841308594,106.2959976196289 -100.39800262451172,88.37699890136719 -101.56900024414062,85.58599853515625 C-102.73899841308594,82.79399871826172 -69.96399688720703,68.83799743652344 -72.84500122070312,56.321998596191406 C-75.0510025024414,46.731998443603516 -78.78800201416016,45.20100021362305 -68.65799713134766,32.14500045776367 C-68.61299896240234,32.05400085449219 -68.52300262451172,31.96500015258789 -68.47799682617188,31.920000076293945 C-68.47799682617188,31.920000076293945 -68.7030029296875,31.875 -68.7030029296875,31.875 C-68.7030029296875,31.875 -58.75299835205078,-5.763000011444092 -50.06399917602539,5.98799991607666 C-50.06399917602539,5.98799991607666 -50.06399917602539,5.942999839782715 -50.06399917602539,5.942999839782715 C-50.06399917602539,5.942999839782715 -42.72600173950195,14.04699993133545 -36.87300109863281,13.730999946594238 C-28.81399917602539,13.281000137329102 -22.555999755859375,14.04699993133545 -15.532999992370605,16.882999420166016 C-15.307999610900879,16.972999572753906 -14.586999893188477,17.288000106811523 -14.362000465393066,17.33300018310547 C-6.257999897003174,17.69300079345703 18.909000396728516,49.073001861572266 3.1059999465942383,46.551998138427734z"></path></g></g><g clip-path="url(#__lottie_element_91)" transform="matrix(0.9989703893661499,0.045367512851953506,-0.045367512851953506,0.9989703893661499,16.68609619140625,-35.219085693359375)" opacity="1" style="display: block;"><g transform="matrix(1,0,0,1,154.35302734375,219.29998779296875)" opacity="1" style="display: block;"><g opacity="1" transform="matrix(1,0,0,1,685.2230224609375,106.99600219726562)"><path fill="rgb(238,225,217)" fill-opacity="1" d=" M-68.7030029296875,31.875 C-68.7030029296875,31.875 -73.88099670410156,28.136999130249023 -76.71700286865234,23.094999313354492 C-77.16699981689453,22.33099937438965 -94.09500122070312,-23.187000274658203 -93.91500091552734,-27.46299934387207 C-93.1500015258789,-46.77799987792969 -75.09600067138672,-39.66400146484375 -72.66500091552734,-29.30900001525879 C-71.26899719238281,-23.410999298095703 -58.75299835205078,-5.763000011444092 -50.06399917602539,5.98799991607666 C-50.06399917602539,5.98799991607666 -50.06399917602539,5.942999839782715 -50.06399917602539,5.942999839782715 C-50.06399917602539,5.942999839782715 -51.43299865722656,27.368999481201172 -51.43299865722656,27.368999481201172 C-51.43299865722656,27.368999481201172 -68.7030029296875,31.875 -68.7030029296875,31.875z"></path></g></g><g transform="matrix(0.99849933385849,0.05476437509059906,-0.05476437509059906,0.99849933385849,159.8035888671875,186.43939208984375)" opacity="1" style="display: block;"><g opacity="1" transform="matrix(1,0,0,1,685.2230224609375,106.99600219726562)"><path fill="rgb(238,225,217)" fill-opacity="1" d=" M-93.91500091552734,-27.46299934387207 C-93.1500015258789,-46.77799987792969 -76.49199676513672,-81.21900177001953 -73.5199966430664,-87.20700073242188 C-73.38500213623047,-87.97200012207031 -72.93499755859375,-90.67400360107422 -72.3499984741211,-92.6989974975586 C-71.67500305175781,-95.13099670410156 -70.00900268554688,-97.11199951171875 -68.65799713134766,-98.86699676513672 C-67.35199737548828,-100.62300109863281 -69.73899841308594,-104.04499816894531 -69.24299621582031,-105.39600372314453 C-68.74800109863281,-106.74600219726562 -66.9469985961914,-106.56700134277344 -64.9209976196289,-105.03500366210938 C-62.89500045776367,-103.50499725341797 -58.573001861572266,-94.36499786376953 -61.68000030517578,-91.48400115966797 C-63.255001068115234,-90.04299926757812 -64.69599914550781,-88.37699890136719 -65.73200225830078,-87.0719985961914 C-66.76699829101562,-85.76599884033203 -67.44200134277344,-84.7760009765625 -67.44200134277344,-84.7760009765625 C-68.79299926757812,-76.98799896240234 -75.09600067138672,-39.66400146484375 -72.66500091552734,-29.30900001525879 C-71.26899719238281,-23.410999298095703 -94.09500122070312,-23.187000274658203 -93.91500091552734,-27.46299934387207z"></path></g></g></g></g><g transform="matrix(1,0,0,1,154.35299682617188,219.29998779296875)" opacity="1" style="display: block;"><g opacity="1" transform="matrix(1,0,0,1,634.1680297851562,167.3699951171875)"><path fill="rgb(13,60,136)" fill-opacity="1" d=" M45.06700134277344,2.9260001182556152 C45.06700134277344,2.9260001182556152 24.851999282836914,37.90800094604492 5.8979997634887695,43.98699951171875 C-4.322000026702881,47.27299880981445 -20.260000228881836,40.159000396728516 -31.559999465942383,32.459999084472656 C-39.30400085449219,27.194000244140625 -44.930999755859375,21.655000686645508 -45.020999908447266,19.04400062561035 C-45.066001892089844,18.413999557495117 -44.75199890136719,17.917999267578125 -44.07600021362305,17.694000244140625 C-36.55799865722656,14.946999549865723 -26.788000106811523,2.746000051498413 -24.941999435424805,-1.215999960899353 C-24.402000427246094,-2.385999917984009 -24.402000427246094,-4.322000026702881 -24.672000885009766,-6.572999954223633 C-25.256999969482422,-11.930000305175781 -27.01300048828125,-19.17799949645996 -24.941999435424805,-23.274999618530273 C-22.016000747680664,-29.128999710083008 10.444999694824219,-47.27199935913086 10.444999694824219,-47.27199935913086 C10.444999694824219,-47.27199935913086 12.741999626159668,-46.59700012207031 12.741999626159668,-46.59700012207031 C12.741999626159668,-46.59700012207031 -7.834000110626221,-19.719999313354492 0,-15.668000221252441 C4.861999988555908,-13.145999908447266 39.70899963378906,-42.95100021362305 39.70899963378906,-42.95100021362305 C39.70899963378906,-42.95100021362305 44.97700119018555,-43.26499938964844 44.97700119018555,-43.26499938964844 C44.97700119018555,-43.26499938964844 35.25299835205078,-32.821998596191406 35.25299835205078,-32.821998596191406 C28.319000244140625,-25.437000274658203 28.725000381469727,-18.05299949645996 31.650999069213867,-11.930000305175781 C35.8380012512207,-3.242000102996826 45.06700134277344,2.9260001182556152 45.06700134277344,2.9260001182556152z"></path></g></g></g><g clip-path="url(#__lottie_element_70)" transform="matrix(0.9907751083374023,0.13551634550094604,-0.13551634550094604,0.9907751083374023,60.7420654296875,-95.31857299804688)" opacity="1" style="display: block;"><g transform="matrix(0.9999553561210632,0.009447404183447361,-0.009447404183447361,0.9999553561210632,155.4605712890625,214.14035034179688)" opacity="1" style="display: block;"><g opacity="1" transform="matrix(1,0,0,1,519.0260009765625,158.7259979248047)"><path fill="rgb(238,225,217)" fill-opacity="1" d=" M33.92300033569336,-67.30699920654297 C33.92300033569336,-67.30699920654297 -33.74399948120117,-44.21099853515625 -72.14800262451172,-12.831000328063965 C-72.14800262451172,-12.831000328063965 -82.63800048828125,-5.671999931335449 -86.14900207519531,-2.611999988555908 C-89.70600128173828,0.44999998807907104 -100.06099700927734,12.605999946594238 -98.62000274658203,15.623000144958496 C-97.18000030517578,18.63800048828125 -88.17500305175781,9.904000282287598 -79.98100280761719,9.859000205993652 C-71.78800201416016,9.814000129699707 -70.43699645996094,7.203999996185303 -68.18599700927734,1.1260000467300415 C-67.1050033569336,-1.7549999952316284 -66.29499816894531,-3.7820000648498535 -65.70999908447266,-5.086999893188477 C-63.729000091552734,-6.122000217437744 -48.69200134277344,-13.416000366210938 -7.0920000076293945,-17.378000259399414 C9.565999984741211,-18.952999114990234 21.226999282836914,-30.614999771118164 21.226999282836914,-30.614999771118164 C21.226999282836914,-30.614999771118164 36.744998931884766,-36.6510009765625 33.92300033569336,-67.30699920654297z"></path></g></g><g transform="matrix(1,0,0,1,154.35299682617188,219.29998779296875)" opacity="1" style="display: block;"><g opacity="1" transform="matrix(1,0,0,1,519.0260009765625,158.7259979248047)"><path fill="rgb(238,225,217)" fill-opacity="1" d=" M33.92300033569336,-67.30699920654297 C33.92300033569336,-67.30699920654297 21.18199920654297,-55.893001556396484 18.607999801635742,-45.36199951171875 C15.746000289916992,-33.6510009765625 21.226999282836914,-30.614999771118164 21.226999282836914,-30.614999771118164 C21.226999282836914,-30.614999771118164 17.219999313354492,-12.156000137329102 15.508999824523926,8.644000053405762 C14.519000053405762,20.52899932861328 14.293999671936035,33.224998474121094 16.003999710083008,43.67100143432617 C18.2549991607666,57.446998596191406 23.83799934387207,67.30699920654297 35.45399856567383,66.4520034790039 C71.33599853515625,63.79600143432617 96.41300201416016,45.24700164794922 96.41300201416016,45.24700164794922 C100.05999755859375,45.922000885009766 60.08000183105469,-61.40999984741211 33.92300033569336,-67.30699920654297z"></path></g></g></g><g transform="matrix(1,0,0,1,154.35299682617188,219.29998779296875)" opacity="1" style="display: block;"><g opacity="1" transform="matrix(1,0,0,1,600.9429931640625,201.4290008544922)"><path fill="rgb(255,255,255)" fill-opacity="1" d=" M176.16900634765625,0.02199999988079071 C176.16900634765625,11.817999839782715 169.41600036621094,22.488000869750977 158.56500244140625,30.277000427246094 C147.71600341796875,38.02000045776367 132.7239990234375,42.8380012512207 116.24600219726562,42.8380012512207 C116.24600219726562,42.8380012512207 -116.24500274658203,42.8380012512207 -116.24500274658203,42.8380012512207 C-149.2010040283203,42.8380012512207 -176.16900634765625,23.56800079345703 -176.16900634765625,0.02199999988079071 C-176.16900634765625,-9.25100040435791 -171.98199462890625,-17.89699935913086 -164.86900329589844,-24.920000076293945 C-163.2030029296875,-26.586000442504883 -161.35699462890625,-28.115999221801758 -159.42100524902344,-29.601999282836914 C-149.0659942626953,-37.30099868774414 -134.74899291992188,-42.25299835205078 -118.85700225830078,-42.74800109863281 C-117.37100219726562,-42.79199981689453 -115.83999633789062,-42.74800109863281 -114.35399627685547,-42.65800094604492 C-101.56800079345703,-41.66699981689453 -27.822999954223633,-35.994998931884766 -1.3049999475479126,-35.994998931884766 C24.716999053955078,-35.994998931884766 98.37200164794922,-41.44300079345703 113.4990005493164,-42.612998962402344 C115.7509994506836,-42.79199981689453 118.0469970703125,-42.8380012512207 120.2979965209961,-42.702999114990234 C137.67599487304688,-41.847999572753906 153.072998046875,-35.68000030517578 163.29299926757812,-26.451000213623047 C171.3520050048828,-19.156999588012695 176.16900634765625,-9.928000450134277 176.16900634765625,0.02199999988079071z"></path></g></g></g><g transform="matrix(0.9399999976158142,0,0,0.8327000141143799,322.260009765625,248.36868286132812)" opacity="1" style="display: block;"><g opacity="1" transform="matrix(1,0,0,1,246.31399536132812,229.30299377441406)"><path fill="rgb(18,101,234)" fill-opacity="1" d=" M982.8270263671875,-120.0479965209961 C958.5540161132812,-120.0479965209961 958.5540161132812,-144.0290069580078 934.280029296875,-144.0290069580078 C910.0070190429688,-144.0290069580078 910.0070190429688,-120.0479965209961 885.7329711914062,-120.0479965209961 C861.4580078125,-120.0479965209961 861.4580078125,-144.0290069580078 837.1829833984375,-144.0290069580078 C812.9080200195312,-144.0290069580078 812.9080200195312,-120.0479965209961 788.6320190429688,-120.0479965209961 C764.3579711914062,-120.0479965209961 764.3579711914062,-144.0290069580078 740.0830078125,-144.0290069580078 C715.8070068359375,-144.0290069580078 715.8070068359375,-120.0479965209961 691.531005859375,-120.0479965209961 C667.2570190429688,-120.0479965209961 667.2570190429688,-144.0290069580078 642.9829711914062,-144.0290069580078 C618.7080078125,-144.0290069580078 618.708984375,-120.0479965209961 594.4349975585938,-120.0479965209961 C570.1589965820312,-120.0479965209961 570.1589965820312,-144.0290069580078 545.8829956054688,-144.0290069580078 C521.6079711914062,-144.0290069580078 521.6069946289062,-120.0479965209961 497.3320007324219,-120.0479965209961 C473.0530090332031,-120.0479965209961 473.0530090332031,-144.0290069580078 448.7749938964844,-144.0290069580078 C424.49700927734375,-144.0290069580078 424.49700927734375,-120.0479965209961 400.2179870605469,-120.0479965209961 C375.94500732421875,-120.0479965209961 375.94500732421875,-144.0290069580078 351.6719970703125,-144.0290069580078 C327.39801025390625,-144.0290069580078 327.39801025390625,-120.0479965209961 303.1239929199219,-120.0479965209961 C278.8489990234375,-120.0479965209961 278.8489990234375,-144.0290069580078 254.57400512695312,-144.0290069580078 C230.2989959716797,-144.0290069580078 230.2989959716797,-120.0479965209961 206.0229949951172,-120.0479965209961 C181.74899291992188,-120.0479965209961 181.74899291992188,-144.0290069580078 157.4739990234375,-144.0290069580078 C133.197998046875,-144.0290069580078 133.197998046875,-120.0479965209961 108.9229965209961,-120.0479965209961 C84.64800262451172,-120.0479965209961 84.64800262451172,-144.0290069580078 60.374000549316406,-144.0290069580078 C36.0989990234375,-144.0290069580078 36.0989990234375,-120.0479965209961 11.824999809265137,-120.0479965209961 C-12.451000213623047,-120.0479965209961 -12.451000213623047,-144.0290069580078 -36.72700119018555,-144.0290069580078 C-61.00199890136719,-144.0290069580078 -61.00199890136719,-120.0479965209961 -85.2770004272461,-120.0479965209961 C-109.55500030517578,-120.0479965209961 -109.55500030517578,-144.0290069580078 -133.83399963378906,-144.0290069580078 C-158.11199951171875,-144.0290069580078 -158.11199951171875,-120.0479965209961 -182.38999938964844,-120.0479965209961 C-206.66400146484375,-120.0479965209961 -206.66400146484375,-144.0290069580078 -230.93699645996094,-144.0290069580078 C-255.21099853515625,-144.0290069580078 -255.21099853515625,-120.0479965209961 -279.4840087890625,-120.0479965209961 C-303.7590026855469,-120.0479965209961 -303.75799560546875,-144.0290069580078 -328.0329895019531,-144.0290069580078 C-352.3089904785156,-144.0290069580078 -352.30999755859375,-120.0479965209961 -376.5849914550781,-120.0479965209961 C-400.8599853515625,-120.0479965209961 -400.8599853515625,-144.0290069580078 -425.135009765625,-144.0290069580078 C-449.4100036621094,-144.0290069580078 -449.40899658203125,-120.0479965209961 -473.68499755859375,-120.0479965209961 C-497.9590148925781,-120.0479965209961 -497.9599914550781,-144.0290069580078 -522.2349853515625,-144.0290069580078 C-546.5089721679688,-144.0290069580078 -546.5089721679688,-120.0479965209961 -570.7839965820312,-120.0479965209961 C-595.0599975585938,-120.0479965209961 -595.0599975585938,-144.0290069580078 -619.3350219726562,-144.0290069580078 C-643.6110229492188,-144.0290069580078 -643.6110229492188,-120.0479965209961 -667.885986328125,-120.0479965209961 C-692.1640014648438,-120.0479965209961 -692.1640014648438,-144.0290069580078 -716.4420166015625,-144.0290069580078 C-740.7210083007812,-144.0290069580078 -740.7210083007812,-120.0479965209961 -764.9990234375,-120.0479965209961 C-764.9990234375,-120.0479965209961 -764.9990234375,144.0290069580078 -764.9990234375,144.0290069580078 C-764.9990234375,144.0290069580078 982.8270263671875,144.0290069580078 982.8270263671875,144.0290069580078 C982.8270263671875,144.0290069580078 982.8270263671875,-120.0479965209961 982.8270263671875,-120.0479965209961z"></path></g></g></g></g></svg>