<svg class="w-full block" viewBox="0 0 377 124" fill="none" xmlns="http://www.w3.org/2000/svg"><g clip-path=""><path d="M10.501 91.44c-2.291-.208-4.168-.739-5.62-1.712-2.003-1.263-3.347-3.428-3.884-6-.567-3.297.16-7.078 2.48-11.435 10.95-21.005 56.017-55.266 81.658-62.078 1.868-.432 3.574.924 3.846 3.233.272 2.308-.887 4.487-2.755 4.919C64.83 24 19.659 56.21 9.146 76.652c-1.64 3.218-1.567 4.546-1.493 4.793-.011.12.052.486.603.776 9.178 6 56.474-15.679 87.697-29.919 13.96-6.428 27.209-12.44 37.092-16.352 14.066-5.457 19.201-5.834 21.103-1.334 2.791 6.383-3.479 12.907-11.342 21.09-4.038 4.2-12.433 12.936-12.258 16.318.614.656 3.932 2.279 19.595-.63 11.938-2.163 27.911-6.366 46.346-11.187C246.965 46.99 316.268 28.867 373.06 33.05c1.814.164 3.179 2.091 2.963 4.476-.205 2.265-1.81 4.042-3.719 3.87-55.933-4.105-124.737 13.822-174.916 26.946-50.571 13.209-71.234 18.188-73.602 6.074-1.557-8.314 6.307-16.497 14.595-25.122 2.657-2.764 6.482-6.744 8.354-9.34-7.821 1.335-30.317 11.678-48.79 20.102C56.764 79.043 25.298 92.78 10.501 91.439Z" fill="#0D428B"></path></g><defs><clipPath id="a"><path fill="#fff" transform="rotate(5.176 4.098 90.67)" d="M0 0h369.808v90.859H0z"></path></clipPath></defs></svg>